<svg width="29" height="28" viewBox="0 0 29 28" fill="none" xmlns="http://www.w3.org/2000/svg">
<g clip-path="url(#clip0)">
<path d="M26.9302 18.5071C26.9302 19.9271 26.9302 21.3671 26.9302 22.7971C26.9302 24.2271 27.2902 26.1671 25.3302 26.8571C23.6602 27.4471 22.6002 26.1671 21.7202 25.0871C20.1002 23.0871 18.6402 23.1571 17.1302 25.0871C15.1302 27.5971 13.2202 27.3571 11.3002 25.0871C9.74024 23.2371 8.30024 23.0871 6.65024 25.0871C5.79024 26.0871 4.89024 27.6071 3.14024 26.8671C1.39024 26.1271 1.53024 24.2771 1.53024 22.6871C1.37749 17.751 1.80373 12.814 2.80024 7.97712C3.80024 3.84712 6.42024 1.85712 10.4902 1.33712C23.1002 -0.252875 26.7202 3.50712 26.9302 18.5071Z" stroke="#B6B8BC" stroke-width="1.4" stroke-linecap="round" stroke-dasharray="4 4"/>
</g>
<defs>
<clipPath id="clip0">
<rect width="28" height="28" fill="white" transform="translate(0.5)"/>
</clipPath>
</defs>
</svg>
