<svg width="190" height="190" viewBox="0 0 190 190" fill="none" xmlns="http://www.w3.org/2000/svg">
<mask id="mask0" mask-type="alpha" maskUnits="userSpaceOnUse" x="0" y="0" width="190" height="190">
<path opacity="0.6" d="M95 190C147.467 190 190 147.467 190 95C190 42.5329 147.467 0 95 0C42.5329 0 0 42.5329 0 95C0 147.467 42.5329 190 95 190Z" fill="#CCCCCC"/>
</mask>
<g mask="url(#mask0)">
<path opacity="0.6" d="M95 190C147.467 190 190 147.467 190 95C190 42.5329 147.467 0 95 0C42.5329 0 0 42.5329 0 95C0 147.467 42.5329 190 95 190Z" fill="#C7C9D1"/>
<path d="M152.397 165.428C152.397 165.248 152.397 165.068 152.217 165.068C152.217 165.068 152.037 165.068 152.037 165.248C152.037 165.248 152.037 165.248 152.217 165.068C152.217 164.528 152.397 163.988 152.397 163.449C152.577 160.75 152.217 158.051 151.317 155.352C150.957 154.092 151.137 153.373 152.397 152.653C153.116 152.293 153.296 151.933 153.296 151.214C153.116 147.795 152.936 144.197 152.757 140.778C152.577 137.18 152.577 133.401 152.397 129.803C152.397 128.183 152.577 126.744 152.577 125.125C152.577 123.325 151.677 122.786 150.058 123.505C148.978 124.045 147.899 124.765 146.819 125.305C146.639 125.485 146.279 125.664 145.919 125.484C147.539 124.405 148.618 122.966 149.878 121.526C152.037 119.007 152.397 117.388 150.957 115.049C150.957 115.409 150.777 115.589 150.777 115.949C150.777 115.949 150.777 115.949 150.777 116.128C150.777 116.128 150.777 116.128 150.777 115.949C150.777 115.589 150.777 115.409 150.957 115.049C150.957 113.789 150.957 112.71 151.317 111.63C151.497 110.731 151.677 109.651 152.037 108.752C152.936 105.873 153.296 102.994 153.116 99.9353C153.296 99.2156 152.936 98.4959 152.936 97.7762C152.936 95.2572 152.577 92.7383 152.577 90.3993C152.577 86.6209 152.037 82.8424 151.677 79.064C151.497 77.4447 151.137 76.0053 150.418 74.5659C150.238 73.6663 150.418 72.9466 150.957 72.2269C152.037 70.6076 152.217 68.8084 152.217 66.8292C152.217 66.6493 152.217 66.4693 152.037 66.4693C152.037 66.1095 152.037 65.7496 152.037 65.5697C152.397 65.2099 152.217 64.85 152.217 64.4902C152.217 62.511 152.217 60.5318 152.397 58.7326C152.757 55.1341 152.936 51.5356 153.116 47.7572C153.116 47.2174 153.296 46.6777 152.936 46.3178C152.397 45.958 151.857 46.4978 151.497 46.8576C150.777 47.2174 150.238 47.0375 150.238 45.958C150.238 45.2383 149.518 45.2383 148.978 45.2383C146.819 45.2383 144.66 45.4182 142.681 45.7781C141.601 45.958 140.522 45.5981 139.442 46.1379C139.442 46.1379 139.442 46.1379 139.262 46.1379C138.902 46.1379 138.543 46.1379 138.183 46.1379C133.685 46.3178 129.366 45.7781 124.868 45.958C121.45 45.958 118.031 45.958 114.613 46.1379C108.315 46.1379 102.018 46.4978 95.7206 46.3178C90.6827 46.1379 85.6447 46.1379 80.6069 46.4978C79.8872 46.4978 79.1675 46.4977 78.4478 46.6777C78.2679 46.6777 78.0879 46.6777 77.908 46.6777C75.0292 46.6777 72.3304 46.8576 69.4516 46.8576C68.7319 46.8576 68.0122 46.8576 67.2925 47.0375C66.2129 47.0375 64.9535 47.0375 63.8739 46.8576C62.9743 46.6777 62.2546 46.4978 61.355 46.3178C60.0955 46.3178 58.836 46.4978 57.3966 46.4978C51.0993 46.4978 44.802 46.3178 38.5046 45.958C36.1656 45.7781 36.1656 45.7781 36.5254 48.1171C36.7054 49.9163 37.0652 51.5356 36.8853 53.3349C36.5254 55.1341 36.5254 57.1133 36.3455 59.0925C36.1656 60.3519 36.7054 61.2515 37.7849 61.9712C39.4042 63.0508 41.2035 63.0508 42.8228 63.2307C43.3626 63.5906 44.2622 63.7705 44.2622 64.85C42.8228 64.6701 41.3834 65.03 39.944 65.7496C38.3247 66.4693 37.2451 67.5489 37.0652 69.5281C37.0652 72.4068 36.7054 75.1057 36.7054 77.9845C36.7054 83.3822 36.7054 88.78 36.5254 94.1777C36.5254 94.8974 36.7054 95.0773 37.4251 94.8974C39.4042 94.5375 41.3834 94.1777 43.3626 93.9978C45.1618 93.8178 46.961 93.2781 48.5804 92.5584C50.1997 91.8387 51.9989 91.119 53.7982 90.5792C53.7982 91.119 53.0785 90.939 53.0785 91.2989C52.8985 91.2989 52.7186 91.2989 52.5387 91.2989C50.9194 92.3784 48.9402 92.9182 47.141 93.9978C44.8019 95.2572 42.1031 96.5167 39.5842 98.3159C37.9648 99.3955 37.2451 100.655 37.2451 102.634C37.2451 106.772 37.2451 110.731 37.2451 114.869C37.2451 115.949 37.4251 117.028 37.0652 118.108C36.8853 119.187 36.7054 120.087 36.7054 121.166C36.7054 123.865 36.7054 126.564 36.8853 129.263C36.8853 132.142 36.7054 135.02 37.0652 137.899C37.2451 138.979 37.2451 139.878 36.8853 140.958C36.3455 142.757 36.7054 144.556 36.7054 146.356C36.7054 146.536 36.7054 146.716 36.7054 146.895C36.7054 147.075 36.7054 147.075 36.7054 147.255C36.5254 149.055 36.8853 150.674 36.8853 152.293C36.8853 153.373 37.4251 154.452 37.0652 155.352C36.5254 157.511 36.8853 159.85 36.7054 162.189C36.5254 165.428 36.8853 168.846 36.5254 172.085C36.5254 172.445 34.1879 177.123 34.1879 177.303C34.7277 177.663 34.7277 179.102 35.2675 179.462C36.5269 179.822 32.2088 182.52 33.2883 181.981C33.6482 181.981 35.4474 183.78 35.6273 183.42C35.9872 183.42 36.1656 178.022 36.3455 177.842C37.4251 177.483 40.3038 181.081 41.7432 181.261C41.2035 181.801 40.6637 181.801 40.1239 181.981C39.0444 182.341 46.7811 183.96 45.8815 184.68C45.7016 184.68 43.5425 184.5 43.3626 184.5L41.7432 185.579C41.5633 185.579 42.283 182.88 42.1031 183.06C41.3834 183.42 46.961 196.375 46.2413 196.734C61.355 206.99 74.3096 208.43 94.1013 208.43C116.592 208.43 139.802 204.291 155.995 191.337C156.355 189.538 152.217 167.047 152.397 165.428ZM121.27 46.8576C121.45 46.8576 121.63 46.6777 121.81 46.6777C121.63 46.6777 121.45 46.6777 121.27 46.8576Z" fill="#F9F9F9"/>
<g opacity="0.8">
<path opacity="0.8" d="M60.0952 167.587V152.653L57.7562 154.452C57.3963 154.812 57.0365 154.812 56.6766 154.272C56.3168 153.913 56.4967 153.553 56.8565 153.193L60.2751 150.674C60.9948 150.134 61.7145 150.494 61.7145 151.214V167.407C61.7145 167.947 61.5346 168.127 60.9948 168.127C60.2751 168.307 60.0952 168.127 60.0952 167.587Z" fill="#C7C9D1"/>
<path opacity="0.8" d="M71.6115 154.274V164.71C71.6115 166.869 70.352 168.489 67.8331 168.489C65.3142 168.489 64.0547 166.869 64.0547 164.71V154.274C64.0547 152.115 65.3142 150.496 67.8331 150.496C70.352 150.496 71.6115 151.935 71.6115 154.274ZM65.674 154.454V162.011L70.1721 154.274C70.1721 152.475 69.4524 151.756 67.8331 151.756C66.3937 151.756 65.674 152.655 65.674 154.454ZM70.1721 164.53V157.153L65.674 164.89C65.674 166.509 66.5736 167.229 68.013 167.229C69.4524 167.049 70.1721 166.149 70.1721 164.53Z" fill="#C7C9D1"/>
<path opacity="0.8" d="M73.7695 168.306V166.507C73.7695 165.967 73.9495 165.787 74.4892 165.787C75.029 165.787 75.2089 165.967 75.2089 166.507V168.306C75.2089 168.846 75.029 169.026 74.4892 169.026C73.9495 169.026 73.7695 168.846 73.7695 168.306Z" fill="#C7C9D1"/>
<path opacity="0.8" d="M84.924 154.274V164.71C84.924 166.869 83.6645 168.489 81.1456 168.489C78.6267 168.489 77.3672 166.869 77.3672 164.71V154.274C77.3672 152.115 78.6267 150.496 81.1456 150.496C83.6645 150.496 84.924 151.935 84.924 154.274ZM78.8066 154.454V162.011L83.3047 154.274C83.3047 152.475 82.585 151.756 80.9657 151.756C79.7062 151.756 78.8066 152.655 78.8066 154.454ZM83.4846 164.53V157.153L78.9865 164.89C78.9865 166.509 79.8861 167.229 81.3255 167.229C82.585 167.049 83.4846 166.149 83.4846 164.53Z" fill="#C7C9D1"/>
<path opacity="0.8" d="M94.6408 154.274V164.71C94.6408 166.869 93.3813 168.489 90.8624 168.489C88.3435 168.489 87.084 166.869 87.084 164.71V154.274C87.084 152.115 88.3435 150.496 90.8624 150.496C93.3813 150.496 94.6408 151.935 94.6408 154.274ZM88.5234 154.454V162.011L93.0215 154.274C93.0215 152.475 92.3018 151.756 90.6825 151.756C89.423 151.756 88.5234 152.655 88.5234 154.454ZM93.2014 164.53V157.153L88.7033 164.89C88.7033 166.509 89.6029 167.229 91.0423 167.229C92.4817 167.049 93.2014 166.149 93.2014 164.53Z" fill="#C7C9D1"/>
<path opacity="0.8" d="M104.358 154.274V164.71C104.358 166.869 103.098 168.489 100.579 168.489C98.0603 168.489 96.8008 166.869 96.8008 164.71V154.274C96.8008 152.115 98.0603 150.496 100.579 150.496C103.098 150.496 104.358 151.935 104.358 154.274ZM98.4201 154.454V162.011L102.918 154.274C102.918 152.475 102.199 151.756 100.579 151.756C99.1398 151.756 98.4201 152.655 98.4201 154.454ZM102.918 164.53V157.153L98.4201 164.89C98.4201 166.509 99.3197 167.229 100.759 167.229C102.199 167.049 102.918 166.149 102.918 164.53Z" fill="#C7C9D1"/>
<path opacity="0.8" d="M105.978 170.106L106.337 169.026C106.517 168.666 106.517 168.306 106.517 167.767V166.327C106.517 165.787 106.697 165.607 107.237 165.607C107.777 165.607 107.957 165.787 107.957 166.327V167.767C107.957 168.486 107.957 168.846 107.777 169.386L107.417 170.465C107.237 171.005 107.057 171.185 106.517 171.005C105.978 170.825 105.798 170.645 105.978 170.106Z" fill="#C7C9D1"/>
<path opacity="0.8" d="M117.668 154.274V164.71C117.668 166.869 116.409 168.489 113.89 168.489C111.371 168.489 110.111 166.869 110.111 164.71V154.274C110.111 152.115 111.371 150.496 113.89 150.496C116.409 150.496 117.668 151.935 117.668 154.274ZM111.551 154.454V162.011L116.049 154.274C116.049 152.475 115.329 151.756 113.71 151.756C112.45 151.756 111.551 152.655 111.551 154.454ZM116.229 164.53V157.153L111.551 164.71C111.551 166.329 112.45 167.049 113.89 167.049C115.329 167.049 116.229 166.149 116.229 164.53Z" fill="#C7C9D1"/>
<path opacity="0.8" d="M127.389 154.274V164.71C127.389 166.869 126.129 168.489 123.61 168.489C121.092 168.489 119.832 166.869 119.832 164.71V154.274C119.832 152.115 121.092 150.496 123.61 150.496C126.129 150.496 127.389 151.935 127.389 154.274ZM121.271 154.454V162.011L125.77 154.274C125.77 152.475 125.05 151.756 123.431 151.756C122.171 151.756 121.271 152.655 121.271 154.454ZM125.949 164.53V157.153L121.451 164.89C121.451 166.509 122.351 167.229 123.79 167.229C125.05 167.049 125.949 166.149 125.949 164.53Z" fill="#C7C9D1"/>
<path opacity="0.8" d="M137.104 154.274V164.71C137.104 166.869 135.844 168.489 133.325 168.489C130.806 168.489 129.547 166.869 129.547 164.71V154.274C129.547 152.115 130.806 150.496 133.325 150.496C135.844 150.496 137.104 151.935 137.104 154.274ZM130.986 154.454V162.011L135.484 154.274C135.484 152.475 134.765 151.756 133.145 151.756C131.886 151.756 130.986 152.655 130.986 154.454ZM135.664 164.53V157.153L131.166 164.89C131.166 166.509 132.066 167.229 133.505 167.229C134.945 167.049 135.664 166.149 135.664 164.53Z" fill="#C7C9D1"/>
</g>
<rect opacity="0.5" x="192" y="197" width="194" height="52" transform="rotate(-180 192 197)" fill="url(#paint0_linear)"/>
<path d="M124.329 116.668C124.329 119.907 124.329 123.326 124.329 126.564C124.329 130.163 125.229 134.301 120.551 135.92C116.592 137.18 114.253 134.301 112.274 131.782C108.496 127.104 105.077 127.284 101.659 131.782C97.1606 137.54 92.6625 137 88.1644 131.782C84.5659 127.464 81.3273 127.104 77.369 131.782C75.3898 134.121 73.2307 137.54 69.2724 135.92C64.9542 134.121 65.6739 129.983 65.6739 126.384C65.6739 115.049 65.8538 103.534 68.5527 92.3787C70.8917 82.8427 77.0091 78.1647 86.3652 77.0851C115.513 73.3067 123.789 81.9431 124.329 116.668Z" fill="#E7E7E7"/>
<path d="M81.6837 99.3984C76.8258 99.7583 75.2064 102.457 75.3864 104.616C75.5663 106.595 78.4451 107.855 81.6837 108.035C81.3239 106.955 80.964 105.516 80.964 103.717C81.3239 101.737 81.5038 100.298 81.6837 99.3984Z" fill="white"/>
<path d="M90.6803 102.457C89.6007 101.198 87.2617 99.5784 83.4833 99.3984C82.9435 99.3984 82.4038 99.3984 81.864 99.3984C81.6841 100.298 81.3242 101.737 81.3242 103.717C81.3242 105.516 81.6841 106.955 82.0439 108.035C82.5837 108.035 83.1235 108.035 83.8432 108.035C86.542 108.035 89.4208 106.056 90.8602 104.616C91.4 104.256 91.4 102.997 90.6803 102.457Z" fill="#C7C9D1"/>
<path d="M103.998 99.3984C99.1402 99.7583 97.5209 102.457 97.7008 104.616C97.8807 106.595 100.76 107.855 103.998 108.035C103.638 106.955 103.278 105.516 103.278 103.717C103.458 101.737 103.638 100.298 103.998 99.3984Z" fill="white"/>
<path d="M112.813 102.457C111.734 101.198 109.395 99.5784 105.616 99.3984C105.076 99.3984 104.537 99.3984 103.997 99.3984C103.817 100.298 103.457 101.737 103.457 103.717C103.457 105.516 103.817 106.955 104.177 108.035C104.717 108.035 105.256 108.035 105.976 108.035C108.675 108.035 111.554 106.056 112.993 104.616C113.533 104.256 113.533 102.997 112.813 102.457Z" fill="#C7C9D1"/>
<path d="M99.6783 109.648H89.6025C89.2427 109.648 88.8828 110.008 88.8828 110.368C88.8828 110.728 89.2427 111.088 89.6025 111.088H90.6821V113.787C90.6821 115.946 92.4813 117.745 94.6404 117.745C96.7995 117.745 98.5987 115.946 98.5987 113.787V111.088H99.6783C100.038 111.088 100.398 110.728 100.398 110.368C100.398 110.008 100.038 109.648 99.6783 109.648ZM96.9794 113.967C96.9794 115.226 95.8999 116.306 94.6404 116.306C93.3809 116.306 92.3014 115.226 92.3014 113.967V111.268H93.9207V114.147C93.9207 114.506 94.2805 114.866 94.6404 114.866C95.0002 114.866 95.3601 114.506 95.3601 114.147V111.268H96.9794V113.967Z" fill="#C7C9D1"/>
</g>
<defs>
<linearGradient id="paint0_linear" x1="289" y1="197" x2="289" y2="249" gradientUnits="userSpaceOnUse">
<stop stop-color="#C4C4C4"/>
<stop offset="1" stop-color="#C4C4C4" stop-opacity="0"/>
</linearGradient>
</defs>
</svg>
