<svg width="280" height="268" viewBox="0 0 280 268" fill="none" xmlns="http://www.w3.org/2000/svg">
<path d="M77.1306 183.465C71.4243 192.241 69.6876 203.253 71.9205 213.437C72.9956 218.488 75.1458 223.29 78.2057 227.43C81.2655 231.569 85.4832 235.295 90.6933 236.04C95.8206 236.786 101.444 234.136 103.181 229.085C103.677 227.595 101.279 226.933 100.783 228.423C99.4594 232.315 94.9936 234.136 91.1894 233.639C86.4756 233.06 82.5887 229.417 79.9423 225.691C74.5669 218.156 72.4994 208.469 73.7399 199.362C74.4842 194.145 76.3036 189.178 79.198 184.707C80.1077 183.382 77.9576 182.14 77.1306 183.465Z" fill="white"/>
<path d="M81.8456 150.348C78.9511 160.2 77.0491 170.384 76.3048 180.651C76.2221 182.224 78.703 182.224 78.7857 180.651C79.53 170.55 81.4321 160.614 84.2439 150.927C84.7401 149.437 82.3418 148.857 81.8456 150.348Z" fill="white"/>
<path d="M197.706 171.128C202.916 178.331 209.367 184.872 217.223 189.095C224.831 193.152 233.598 194.891 242.116 193.152C246.912 192.241 251.378 190.171 255.099 187.025C256.34 186.031 254.603 184.293 253.363 185.286C247.16 190.337 238.808 192.076 231.034 190.999C222.847 189.923 215.321 185.783 209.201 180.318C205.728 177.172 202.585 173.612 199.856 169.803C198.947 168.561 196.796 169.803 197.706 171.128Z" fill="white"/>
<path d="M77.4619 179.904C66.8764 181.064 56.7044 184.955 48.1037 191.33C46.8632 192.241 48.1037 194.394 49.3442 193.483C57.5314 187.356 67.2899 183.465 77.4619 182.388C79.0332 182.223 79.1159 179.739 77.4619 179.904Z" fill="white"/>
<path d="M249.146 186.776L213.502 166.905V147.117C209.036 95.3694 142.381 89.2425 142.381 89.2425H117.24C117.24 89.2425 71.673 87.1726 39.6683 115.572C7.66369 143.888 -11.936 211.367 10.5582 238.772C31.4811 264.274 53.4791 263.942 77.7927 249.784H167.687C173.972 266.757 188.692 267.999 195.887 267.999C205.315 267.999 234.177 267.254 247.822 237.365C261.468 207.393 249.146 186.776 249.146 186.776Z" fill="white"/>
<path d="M146.763 78.8107L159.168 79.0591C160.409 79.0591 161.401 78.2311 161.732 77.072C164.378 64.7354 164.378 -2.4951 121.126 0.0715841C62.6579 3.46623 72.5818 70.1171 82.6712 87.6699C83.1673 88.5807 84.2424 88.9118 85.2348 88.5807C87.4677 87.6699 91.7681 86.0968 94.9106 85.5172C96.1511 85.2688 96.8954 84.1097 96.4819 82.9505L94.7452 77.2376C94.6625 77.072 94.9106 76.9892 94.9933 77.1548L98.4667 83.8613C98.8802 84.6892 99.8726 85.1032 100.865 84.8548C106.406 83.2817 125.096 78.5623 146.763 78.8107Z" fill="black"/>
<path d="M109.383 82.1217C109.714 85.7648 109.383 91.3121 110.954 94.5411C112.525 97.7702 115.751 99.3433 119.389 100.171C125.84 101.662 133.2 100.502 136.508 94.7067C139.403 89.6562 138.824 83.2809 138.162 77.4023" fill="#FFA1A1"/>
<path d="M158.837 46.8512C158.837 46.8512 159.25 26.1522 145.026 12.4908C130.801 -1.17051 106.901 8.01986 103.097 9.67578C87.3016 16.7962 75.9718 45.6921 86.2265 64.6524C96.4812 83.6127 109.879 84.4407 109.879 84.4407L158.837 46.8512Z" fill="black"/>
<path d="M126.254 89.6562C144.021 89.6562 158.424 73.2346 158.424 52.9775C158.424 32.7204 144.021 16.2988 126.254 16.2988C108.487 16.2988 94.084 32.7204 94.084 52.9775C94.084 73.2346 108.487 89.6562 126.254 89.6562Z" fill="#FFC5C4"/>
<path d="M112.029 54.0547C106.24 55.131 104.668 58.6913 105.082 61.1752C105.495 63.5762 109.299 64.6526 113.186 64.6526C112.607 63.4106 112.111 61.6719 111.863 59.4364C111.615 56.9526 111.78 55.2138 112.029 54.0547Z" fill="white"/>
<path d="M123.275 56.6222C121.786 55.2974 118.809 53.4759 114.012 53.8071C113.268 53.8899 112.689 53.9727 112.028 54.0555C111.78 55.1318 111.614 56.9533 111.945 59.4372C112.193 61.6727 112.689 63.4114 113.268 64.6534C113.93 64.6534 114.674 64.6534 115.336 64.5706C118.644 64.2394 121.952 61.5071 123.523 59.6028C124.185 58.8577 124.102 57.2845 123.275 56.6222Z" fill="black"/>
<path d="M138.989 51.3203C133.201 52.3967 131.629 55.9569 132.043 58.4408C132.456 60.8419 136.26 61.9182 140.147 61.9182C139.568 60.6763 139.072 58.9376 138.824 56.7021C138.576 54.1354 138.741 52.3967 138.989 51.3203Z" fill="white"/>
<path d="M150.236 53.8058C148.747 52.481 145.77 50.6595 140.973 50.9907C140.229 51.0735 139.65 51.1563 138.989 51.2391C138.741 52.3154 138.575 54.1369 138.906 56.6208C139.154 58.8563 139.65 60.595 140.229 61.837C140.891 61.837 141.635 61.837 142.297 61.7542C145.605 61.423 148.913 58.6907 150.484 56.7864C151.145 56.0413 151.063 54.5509 150.236 53.8058Z" fill="black"/>
<path d="M130.763 66.0275L128.554 66.1913C127.736 66.2732 127 65.618 127 64.799C127 63.9801 127.573 63.243 128.391 63.243L130.599 63.0792C131.417 62.9973 132.154 63.6525 132.154 64.4715C132.154 65.2904 131.581 66.0275 130.763 66.0275Z" fill="black"/>
<path d="M135.186 71.3574C135.848 73.6757 134.69 76.2424 132.953 77.9811C131.878 78.9747 130.555 79.8026 129.149 79.7198C127.991 79.637 126.833 78.9747 126.006 78.1467C124.518 76.6564 123.608 74.5037 123.525 72.351L135.186 71.3574Z" fill="white"/>
<path d="M134.028 71.6883C134.442 73.0959 133.946 74.5862 133.201 75.7454C132.457 76.9045 131.217 78.1464 129.811 78.4776C128.405 78.8088 127.164 77.7325 126.337 76.6561C125.345 75.4142 124.849 73.9238 124.766 72.3507C124.353 72.7647 123.939 73.1787 123.526 73.5927C126.916 73.2615 130.307 73.0131 133.698 72.6819C134.194 72.5991 134.69 72.5991 135.186 72.5163C135.848 72.4335 136.427 72.0195 136.427 71.2744C136.427 70.612 135.848 69.9496 135.186 70.0324C131.796 70.3636 128.405 70.612 125.014 70.9432C124.518 71.026 124.022 71.026 123.526 71.1088C122.864 71.1916 122.285 71.6056 122.285 72.3507C122.368 75.5798 124.105 79.14 127.164 80.5475C130.555 82.0379 134.028 79.3884 135.6 76.4905C136.509 74.8346 136.84 72.9303 136.344 71.026C136.013 69.5357 133.615 70.1152 134.028 71.6883Z" fill="#1A1A1A"/>
<path d="M94.4981 56.6208C94.4981 56.6208 98.6331 49.5003 124.435 47.0993C150.237 44.781 159.665 48.0928 159.665 48.0928C159.665 48.0928 160.906 11.6625 123.195 12.4905C85.4839 13.3184 92.4306 50.8251 94.4981 56.6208Z" fill="black"/>
<path d="M97.1823 70.2156C99.4046 69.377 100.227 66.0957 99.0185 62.8867C97.8103 59.6777 95.0294 57.7561 92.8071 58.5948C90.5847 59.4334 89.7626 62.7147 90.9708 65.9237C92.179 69.1327 94.9599 71.0543 97.1823 70.2156Z" fill="#FFC5C4"/>
<path d="M118.233 19.9434C118.233 19.9434 111.948 24.7455 116.91 48.3424L135.186 48.4252C135.186 48.4252 132.705 19.9434 118.233 19.9434Z" fill="#FFC5C4"/>
<path d="M33.0518 142.479C44.1335 137.097 57.2 133.786 69.2741 137.677C75.0631 139.581 80.3558 143.142 83.8292 148.192C84.7389 149.517 86.8891 148.275 85.9794 146.95C79.1153 136.766 66.4624 132.626 54.5537 133.62C47.6069 134.2 40.8256 136.269 34.4577 139.085C29.0823 141.486 23.9549 144.466 19.3237 148.109C17.0082 149.931 14.858 151.918 12.8732 154.153C11.4673 157.3 10.1441 160.529 8.98633 163.758C14.2791 154.153 23.2106 147.199 33.0518 142.479Z" fill="black"/>
<path d="M46.7803 180.648C48.3515 180.565 48.3515 178.081 46.7803 178.164C29.9923 179.406 13.7832 186.527 1.21294 197.704C1.13024 198.946 1.04754 200.105 0.964844 201.347C9.31747 193.399 19.4895 187.272 30.5712 183.794C35.7812 182.056 41.2394 180.979 46.7803 180.648Z" fill="black"/>
<path d="M115.918 134.198C109.054 134.612 102.189 136.02 95.9043 138.669C91.8521 140.408 88.0479 142.726 85.0707 145.955C83.9956 147.115 85.7323 148.853 86.8074 147.694C92.0175 141.981 99.5431 139.497 106.903 137.841C112.94 136.517 119.06 136.351 125.18 136.351C125.924 136.351 126.668 136.351 127.413 136.351L128.157 133.867C124.105 133.784 119.97 133.95 115.918 134.198Z" fill="black"/>
<path d="M175.046 182.965C171.159 182.634 167.355 182.965 163.551 183.876C161.98 184.207 162.641 186.608 164.212 186.277C167.768 185.449 171.407 185.201 175.046 185.532C175.708 185.615 176.286 184.952 176.286 184.29C176.286 183.462 175.708 182.965 175.046 182.965Z" fill="black"/>
<path d="M183.399 148.358C186.955 144.135 191.007 140.492 195.638 137.511C196.962 136.601 195.721 134.448 194.398 135.359C189.684 138.505 185.384 142.314 181.662 146.619C181.249 147.116 181.166 147.861 181.662 148.358C182.076 148.772 182.985 148.854 183.399 148.358Z" fill="black"/>
<path d="M46.0364 234.796C39.3377 224.944 36.5259 212.027 38.1799 200.188C39.0896 193.895 41.4052 187.685 46.1191 183.214C46.2845 183.049 46.3672 182.883 46.4499 182.635C40.6609 188.596 37.601 193.647 37.601 193.729C37.4356 194.061 37.1048 194.309 36.774 194.392C34.8719 201.264 34.9546 208.964 36.0297 215.836C38.0972 228.504 44.7132 240.592 55.7122 247.63C60.2606 250.528 65.6361 252.515 70.9288 253.177C72.3347 252.515 73.7406 251.77 75.0638 251.024C75.1465 251.024 75.0638 250.942 75.0638 250.942C63.5686 251.024 52.4869 244.318 46.0364 234.796Z" fill="black"/>
<path d="M66.71 191.495C67.9505 198.201 70.6795 204.577 73.9048 210.538C76.882 216.002 80.2727 221.384 84.4903 226.021C88.3772 230.326 93.091 233.886 98.6319 235.542C99.4589 234.88 100.286 234.218 101.03 233.638C89.9485 231.071 82.7536 220.887 77.3782 211.614C71.3411 201.265 66.5446 188.928 69.1909 176.757C70.1833 172.452 72.0027 168.395 74.7318 165C73.3259 165.497 72.0027 166.076 70.5968 166.573C66.2965 173.859 65.1387 182.967 66.71 191.495Z" fill="black"/>
<path d="M248.153 187.189C250.303 195.882 248.484 205.073 244.68 213.021C241.041 220.556 235.5 227.676 228.223 232.064C224.005 234.548 219.126 235.956 214.329 236.867C209.202 237.943 203.909 238.357 198.699 238.026C194.729 237.777 190.677 237.198 186.873 235.79C183.482 234.548 180.753 232.396 178.355 229.663C175.46 226.434 173.228 222.543 171.574 218.486C170.416 215.671 169.258 212.359 169.589 209.213C169.754 207.64 167.273 207.64 167.108 209.213C166.777 212.111 167.769 215.257 168.762 217.989C170.168 221.88 172.07 225.523 174.551 228.835C176.949 232.147 180.009 235.211 183.648 237.032C187.121 238.771 191.008 239.599 194.812 240.096C200.022 240.758 205.315 240.592 210.442 239.93C216.066 239.185 221.772 237.86 226.899 235.376C234.756 231.65 241.041 224.53 245.259 216.995C249.476 209.461 251.957 200.685 251.296 191.991C250.138 188.514 248.98 186.692 248.98 186.692L248.153 186.195C248.153 186.609 248.07 186.858 248.153 187.189Z" fill="black"/>
<path d="M189.685 162.267C187.287 168.477 185.137 174.935 187.37 181.559C189.272 187.023 193.076 191.991 197.459 195.634C205.977 202.754 217.72 205.569 228.223 201.43C233.847 199.277 238.809 195.386 241.951 190.087C242.778 188.679 240.628 187.437 239.801 188.845C234.674 197.373 224.253 201.926 214.495 200.684C204.24 199.36 194.978 192.156 190.595 182.883C189.106 179.82 188.527 176.508 188.941 173.113C189.354 169.553 190.76 166.158 192.001 162.847C192.662 161.439 190.264 160.777 189.685 162.267Z" fill="black"/>
<path d="M174.633 144.135C174.963 144.383 175.294 144.549 175.542 144.797C175.708 144.88 175.79 145.046 175.956 145.128L176.039 145.211C175.956 145.128 175.956 145.128 176.039 145.211C176.121 145.294 176.204 145.294 176.204 145.377C176.783 145.873 177.362 146.287 177.941 146.784C179.016 147.695 180.008 148.771 180.918 149.848C181.331 150.344 182.241 150.344 182.654 149.848C183.151 149.351 183.068 148.606 182.654 148.109C180.67 145.791 178.354 143.804 175.873 142.065C175.377 141.734 174.467 141.982 174.136 142.479C173.806 143.058 174.054 143.721 174.633 144.135Z" fill="black"/>
<path d="M167.521 249.205C167.521 249.122 166.115 239.021 167.604 223.207C168.927 208.635 174.633 186.032 193.819 161.11C194.398 160.365 194.233 159.371 193.488 158.792C192.744 158.212 191.752 158.378 191.173 159.123C171.408 184.707 165.619 208.056 164.296 223.124C162.89 238.607 163.717 248.212 164.13 249.702H167.686C167.521 249.454 167.604 249.536 167.521 249.205Z" fill="black"/>
<path d="M121.458 218.902C121.789 218.488 121.954 217.908 121.789 217.412C121.789 217.246 117.819 202.012 113.602 186.86C104.836 155.232 103.678 155.149 102.107 154.983C99.2948 154.735 75.8909 158.792 59.4337 168.231C43.2247 177.587 35.0374 191.496 34.7066 192.076C34.2104 192.904 34.5412 193.898 35.2855 194.312C36.1125 194.808 37.1049 194.477 37.5184 193.732C37.6011 193.566 45.6229 179.988 61.005 171.046C76.139 162.269 96.9792 158.544 101.114 158.212C103.678 163.015 112.775 196.133 118.233 217.246C115.09 220.724 99.3775 237.531 76.7179 249.951H83.3338C106.407 236.289 121.293 219.15 121.458 218.902Z" fill="black"/>
<path d="M128.652 155.314C128.652 155.314 113.601 142.232 93.2569 159.536C72.9129 176.841 90.2798 202.839 90.2798 202.839C90.2798 202.839 110.706 234.467 138.493 219.232C139.569 218.653 140.478 217.742 141.057 216.748C142.132 214.927 143.042 212.029 140.23 210.125C135.764 207.144 160.988 204.246 149.079 189.094C149.079 189.094 159.499 181.477 156.687 171.21C153.876 160.944 141.471 163.924 133.614 165.663L124.269 167.402L128.652 155.314Z" fill="#FFC5C4"/>
<path d="M106.904 167.152C113.106 169.636 119.97 169.222 126.421 167.98C129.811 167.318 133.202 166.49 136.593 165.744C139.487 165.082 142.382 164.42 145.359 164.42C148.088 164.337 150.817 164.834 153.132 166.324C155.117 167.732 156.358 169.884 156.771 172.203C157.598 177.17 155.117 182.386 151.313 185.45C146.103 189.672 139.074 190.832 132.623 191.825C131.052 192.074 131.713 194.475 133.285 194.226C139.487 193.316 145.938 192.156 151.313 188.596C156.027 185.45 159.252 180.399 159.418 174.686C159.666 168.891 156.192 164.006 150.569 162.515C144.284 160.859 137.668 163.012 131.548 164.42C123.691 166.241 115.339 167.897 107.565 164.834C106.077 164.171 105.415 166.572 106.904 167.152Z" fill="#FF8F8F"/>
<path d="M149.741 190.501C151.478 191.826 152.14 193.979 151.892 196.131C151.644 198.45 150.32 200.437 148.749 201.927C144.945 205.57 139.487 207.557 134.359 208.302C133.698 208.385 133.367 209.213 133.532 209.793C133.698 210.538 134.359 210.786 135.021 210.621C140.893 209.793 147.343 207.309 151.313 202.755C153.132 200.685 154.373 198.201 154.373 195.469C154.455 192.902 153.463 190.253 151.395 188.68C150.32 187.769 148.501 189.508 149.741 190.501Z" fill="#FF8F8F"/>
<path d="M139.652 210.291C140.892 211.036 140.975 212.774 140.479 214.016C139.817 215.672 138.246 216.749 136.757 217.577C134.028 219.233 130.968 220.392 127.826 221.054C121.54 222.379 114.594 221.882 108.722 219.15C106.985 218.322 105.414 217.245 103.843 216.086C103.76 216.004 103.677 215.921 103.595 215.921C103.264 215.672 103.76 216.086 103.429 215.755C103.099 215.507 102.685 215.176 102.354 214.844C99.8732 212.692 97.5577 210.373 95.4075 207.807C88.7915 199.775 84.5739 189.757 84.9874 179.242C85.0701 177.089 85.2355 174.688 85.8144 172.618C85.8971 172.37 85.9798 172.204 86.0625 171.956C86.1452 171.79 86.1452 171.625 86.2279 171.459C86.2279 171.376 86.3106 171.294 86.3106 171.128C86.2279 171.294 86.3106 171.211 86.3933 170.962C87.6338 168.147 89.2877 165.581 91.2725 163.262C94.4151 159.619 98.3847 156.721 102.768 154.734C105.58 153.492 108.639 152.582 111.699 152.002C113.684 151.671 115.834 151.671 117.819 151.919C119.225 152.085 120.713 152.333 122.119 152.913C123.608 153.575 124.848 151.423 123.36 150.76C118.067 148.442 111.865 149.021 106.489 150.677C101.031 152.333 95.9037 155.148 91.7687 159.123C88.9569 161.772 86.6414 164.918 84.9047 168.313C83.7469 170.631 83.168 172.701 82.8372 175.351C81.2659 187.108 85.2355 198.616 92.4303 207.972C96.3172 212.94 101.196 217.991 106.82 220.888C113.105 224.118 120.383 224.863 127.247 223.621C130.72 223.041 134.028 221.882 137.088 220.226C140.148 218.57 143.538 215.921 143.208 212.029C143.042 210.373 142.298 208.966 140.892 208.138C139.569 207.31 138.328 209.463 139.652 210.291Z" fill="#FF8F8F"/>
<path d="M176.701 122.609L133.036 127.908C130.803 128.322 129.067 130.06 128.653 132.213L118.398 166.491C122.782 166.325 127.165 165.414 131.382 164.421C137.502 163.013 144.118 160.861 150.403 162.434C153.132 163.179 155.613 164.669 157.267 167.07C158.756 169.223 159.335 171.872 159.252 174.439C159.087 180.152 155.944 185.12 151.313 188.266C151.23 188.349 151.065 188.432 150.982 188.515C151.147 188.515 151.313 188.597 151.478 188.763C153.463 190.336 154.455 192.903 154.373 195.469C154.29 197.539 153.628 199.526 152.471 201.182L158.59 200.52C160.575 200.023 162.146 198.533 162.643 196.546L180.671 126.831C181.25 124.348 179.182 122.112 176.701 122.609Z" fill="#FF4569"/>
<path d="M84.0781 160.118L85.8975 134.451" stroke="black" stroke-width="4" stroke-miterlimit="10" stroke-linecap="round" stroke-linejoin="round"/>
<path d="M181.166 134.699L183.233 170.633" stroke="black" stroke-width="4" stroke-miterlimit="10" stroke-linecap="round" stroke-linejoin="round"/>
<path d="M263.701 161.691L263.535 161.94C263.535 161.857 263.618 161.774 263.701 161.691Z" fill="#FFC5C4"/>
<path d="M269.986 106.382C269.159 106.217 268.332 106.217 267.587 106.134C264.858 106.051 262.129 106.548 259.4 107.293C255.927 108.287 252.536 109.611 249.228 110.853C243.605 113.089 238.064 115.573 232.771 118.471C231.861 118.967 231.034 119.381 230.125 119.878C227.065 121.534 224.005 123.356 221.11 125.26C216.727 124.018 210.359 123.273 207.465 123.438C201.593 123.77 196.466 128.158 193.902 133.457C191.256 138.756 190.76 144.8 190.842 150.678C190.842 150.678 190.677 172.702 214.825 185.949C221.937 189.841 228.636 191.083 234.508 190.834C238.643 191.911 243.356 191.248 247.409 190.586C252.04 189.841 257.002 188.516 260.392 185.122C261.716 183.797 262.708 182.224 263.287 180.568C263.7 179.491 263.949 178.332 264.031 177.173C264.197 175.434 264.197 173.696 264.031 172.04C263.866 170.467 263.618 168.893 262.791 167.486C262.791 167.403 262.708 167.32 262.625 167.238C261.881 166.244 260.806 165.333 259.648 165.002C260.723 163.263 261.633 161.442 262.129 159.455C262.791 156.888 263.122 153.825 262.295 151.175C261.302 148.277 258.904 145.214 255.844 143.972C256.836 143.392 257.746 142.813 258.656 142.15C260.144 141.157 261.633 140.08 263.039 139.004C265.768 136.851 268.414 134.616 270.813 132.049C272.632 130.062 274.369 127.992 275.94 125.839C277.594 123.521 279.165 121.037 279.661 118.139C280.571 112.095 275.526 107.376 269.986 106.382Z" fill="#FFC5C4"/>
<path d="M251.875 144.718C256.093 143.559 261.138 148.858 261.469 153.246C261.799 157.883 260.228 162.602 257.168 166.163C258.739 165.5 260.642 166.411 261.551 167.819C262.461 169.226 262.709 170.965 262.792 172.704C262.957 175.436 262.957 178.251 261.882 180.818C259.236 187.027 251.462 188.932 244.763 189.76C240.628 190.256 236.163 190.588 232.358 188.849C228.554 187.11 225.742 182.474 227.396 178.665C228.223 176.678 229.96 175.353 231.779 174.194C235.832 171.71 240.628 169.888 245.342 169.806" fill="#FFC5C4"/>
<path d="M252.206 145.877C255.762 144.967 259.153 149.106 259.98 152.17C260.559 154.24 260.145 156.724 259.649 158.793C258.987 161.195 257.829 163.347 256.258 165.252C255.514 166.08 256.176 167.818 257.499 167.321C260.31 166.245 261.303 169.971 261.468 171.958C261.716 174.69 261.799 177.754 260.641 180.32C258.822 184.377 254.604 186.282 250.552 187.358C248.319 187.938 245.921 188.269 243.605 188.517C240.876 188.848 238.064 189.014 235.335 188.435C232.854 187.855 230.704 186.696 229.298 184.543C228.14 182.804 227.644 180.569 228.637 178.582C229.96 176.015 233.02 174.608 235.501 173.448C238.561 172.041 241.869 171.047 245.177 170.965C246.748 170.965 246.748 168.481 245.177 168.481C241.703 168.563 238.312 169.474 235.087 170.882C232.193 172.124 229.05 173.78 227.148 176.263C223.509 181.066 226.817 187.607 231.779 189.842C234.922 191.25 238.395 191.415 241.703 191.167C244.598 190.918 247.492 190.587 250.221 189.925C255.266 188.766 260.559 186.282 262.709 181.314C264.197 177.919 264.197 173.531 263.453 169.888C262.874 166.825 259.98 163.513 256.589 164.838C257.002 165.5 257.416 166.245 257.829 166.908C259.732 164.672 261.137 162.023 261.882 159.207C262.543 156.641 262.874 153.577 262.047 150.928C260.641 146.705 256.176 142.151 251.379 143.393C249.973 143.89 250.635 146.291 252.206 145.877Z" fill="#FF8F8F"/>
<path d="M220.365 127.165C231.695 119.796 243.935 113.834 256.67 109.446C260.805 108.039 265.271 106.797 269.571 107.542C273.954 108.287 278.089 111.682 278.42 116.07C278.586 119.05 277.097 121.866 275.36 124.349C264.609 139.832 246.664 148.94 228.47 153.742" fill="#FFC5C4"/>
<path d="M221.028 128.241C228.719 123.273 236.741 118.885 245.093 115.242C249.311 113.421 253.611 111.765 257.994 110.357C262.212 108.95 267.009 107.708 271.392 109.281C274.7 110.523 277.677 113.504 277.346 117.229C277.181 119.382 276.023 121.369 274.865 123.108C273.79 124.764 272.549 126.337 271.309 127.827C266.182 133.871 259.979 138.756 253.115 142.648C245.341 147.119 236.906 150.265 228.305 152.583C226.734 152.997 227.396 155.398 228.967 154.984C245.176 150.679 261.22 143.145 272.467 130.311C275.196 127.165 278.338 123.522 279.496 119.465C280.654 115.408 279.083 111.434 275.857 108.95C272.219 106.135 267.753 105.803 263.37 106.466C258.491 107.294 253.777 109.198 249.146 111.02C238.891 115.077 229.132 120.127 219.87 126.089C218.381 126.999 219.622 129.152 221.028 128.241Z" fill="#FF8F8F"/>
<path d="M225.742 165.002C228.306 167.486 231.862 168.728 235.418 169.307C241.124 170.301 247.161 169.887 252.702 168.231C254.604 167.651 256.672 166.823 257.747 165.085" fill="#FFC5C4"/>
<path d="M224.915 165.913C229.381 170.136 236.162 171.129 242.116 171.129C245.424 171.129 248.65 170.633 251.875 169.805C254.604 169.06 257.333 168.149 258.904 165.748C259.814 164.423 257.664 163.181 256.754 164.506C255.348 166.493 252.454 167.155 250.221 167.652C247.409 168.314 244.597 168.646 241.703 168.646C236.576 168.646 230.539 167.818 226.652 164.175C225.494 163.098 223.757 164.837 224.915 165.913Z" fill="#FF8F8F"/>
<path d="M225.99 114.744L223.922 115.489C223.343 115.737 222.516 114.827 222.02 113.419L217.802 101.828C217.306 100.503 217.389 99.1781 217.968 99.0125L220.035 98.2673C220.614 98.0189 221.441 98.9297 221.937 100.337L226.155 111.929C226.569 113.253 226.568 114.495 225.99 114.744Z" fill="black"/>
<path d="M213.418 102.076C212.095 102.573 210.607 101.911 210.028 100.586L208.126 95.6182C207.629 94.2934 208.291 92.8031 209.614 92.2235C210.937 91.7268 212.426 92.3891 213.005 93.7139L214.907 98.6816C215.403 100.089 214.742 101.579 213.418 102.076Z" fill="black"/>
<path d="M230.952 147.2L230.29 147.449C227.726 148.442 224.832 147.118 223.922 144.551L208.953 104.726C207.961 102.159 209.284 99.2615 211.848 98.3507L212.51 98.1023C215.073 97.1088 217.968 98.4335 218.877 101L233.846 140.825C234.838 143.392 233.515 146.207 230.952 147.2Z" fill="#FF4569"/>
<path d="M209.697 150.43C210.276 153.825 210.276 157.468 211.93 160.531C215.238 166.741 224.831 167.486 230.124 162.767C235.334 158.13 236.326 149.851 233.763 143.31C231.199 136.769 225.824 131.718 219.869 127.91C215.982 125.426 211.599 123.273 207.051 123.522" fill="#FFC5C4"/>
<path d="M240.131 188.848C237.898 189.344 236.492 189.51 234.177 189.593C227.726 189.841 221.193 188.185 215.487 185.122C214.329 184.459 213.254 183.797 212.179 183.052C212.096 182.969 212.509 183.3 212.427 183.217C211.93 182.803 211.352 182.389 210.855 181.975C209.863 181.23 208.871 180.402 207.878 179.574C206.141 178.084 204.405 176.428 202.834 174.772C198.037 169.556 194.233 163.346 192.579 156.391C191.421 151.258 191.504 145.959 192.661 140.909C193.819 135.692 195.804 130.062 200.104 126.585C201.758 125.26 203.66 124.349 205.728 123.935C205.811 123.935 205.893 123.935 205.976 123.853C206.059 123.853 206.141 123.853 206.141 123.853H206.224C206.39 123.853 206.555 123.853 206.638 123.853C208.457 123.77 210.359 124.267 212.013 124.929C214.246 125.84 216.313 127.164 218.298 128.489C220.035 129.648 221.854 130.807 223.426 132.132C226.816 134.864 229.711 138.093 231.696 142.068C234.921 148.609 234.673 158.544 227.891 162.85C225.162 164.588 221.689 165.085 218.629 164.257C216.313 163.677 214.494 162.353 213.336 160.531C212.592 159.455 212.096 158.296 211.848 156.888C211.352 154.653 211.186 152.417 210.855 150.099C210.607 148.526 208.209 149.188 208.457 150.761C209.201 155.315 209.201 160.366 212.757 163.76C212.923 163.926 213.171 164.091 213.336 164.257C215.9 166.327 219.291 167.238 222.599 166.989C226.32 166.741 229.876 165.085 232.274 162.187C234.921 158.958 236.244 154.818 236.244 150.678C236.244 141.24 229.876 133.622 222.599 128.406C220.614 126.999 218.629 125.674 216.479 124.515C214.329 123.273 212.096 122.114 209.615 121.7C207.878 121.369 206.141 121.369 204.405 121.783C204.239 121.783 204.157 121.865 203.991 121.865C197.623 123.687 193.819 129.151 191.669 135.113C189.932 139.998 188.94 145.131 189.188 150.347C189.684 165.168 199.691 177.67 211.434 185.784C215.983 188.93 221.524 191 227.064 191.828C231.53 192.491 236.161 192.739 240.462 191.497C241.785 191.166 242.943 189.758 243.273 189.51" fill="#FF8F8F"/>
</svg>
