<svg width="88" height="98" viewBox="0 0 88 98" fill="none" xmlns="http://www.w3.org/2000/svg">
<path d="M87.9423 68.3536C87.9423 73.3142 88.0571 78.3324 87.9423 83.293C87.8275 88.6573 89.2052 95.0022 82.3741 97.4248C76.5763 99.4437 72.9599 95.0022 69.9175 91.253C64.2919 84.2736 59.2404 84.562 54.0166 91.3107C47.243 100.02 40.4693 99.2129 33.8679 91.253C28.4719 84.7927 23.5352 84.2736 17.7374 91.1376C14.7524 94.6561 11.6526 99.9051 5.56784 97.3095C-0.861386 94.5408 0.0570748 88.3112 0.0570748 82.8892C0.0570748 65.7003 0.401498 48.6267 4.41976 31.7262C7.86399 17.3636 16.9912 10.3842 31.0551 8.59611C74.7394 3.05874 87.2534 16.1523 87.9423 68.3536Z" fill="#7D6BFF"/>
<path d="M57.0014 0.98149C57.0014 0.520042 56.4847 0.289318 56.0829 0.635404L50.2277 5.88437C49.9981 6.1151 49.7111 6.05742 49.4815 5.82669L44.3725 0.231637C44.1429 0.000912767 43.8559 0.000912767 43.6263 0.231637L37.8859 5.88437C37.6563 6.1151 37.3693 6.1151 37.1396 5.88437L31.2271 0.520042C30.8826 0.173956 30.3086 0.462361 30.3086 0.866128V12.5177C30.3086 12.5754 30.3086 12.6907 30.366 12.7484C30.3086 12.8638 30.3086 12.9791 30.3086 13.0945C30.3086 15.9209 39.895 16.267 42.8226 16.267C42.8226 16.267 42.9948 16.267 43.2244 16.267C43.4541 16.267 43.5689 16.267 43.5689 16.267C46.5539 16.267 56.8865 15.9209 56.8865 13.0945C56.8865 12.9791 56.8865 12.8638 56.8291 12.7484C56.8865 12.6907 56.8865 12.5754 56.8865 12.5177L57.0014 0.98149Z" fill="white"/>
<path d="M24.281 42.3965C17.1055 42.9733 14.6946 47.1263 14.9816 50.2411C15.2112 53.1828 19.6313 55.0286 24.4532 55.4901C23.9366 53.875 23.4773 51.6831 23.4773 48.9721C23.4773 45.8573 23.8792 43.7231 24.281 42.3965Z" fill="white"/>
<path d="M37.6565 46.8947C35.9918 45.0489 32.605 42.4533 26.7498 42.3379C25.8887 42.3379 25.0851 42.3379 24.3388 42.3956C23.937 43.7222 23.5352 45.8564 23.5352 48.9712C23.5352 51.7399 23.9944 53.9318 24.511 55.4892C25.3721 55.5468 26.2331 55.6045 27.0942 55.6045C31.1125 55.6045 35.5325 52.7205 37.7139 50.5863C38.5749 49.7787 38.5749 47.8753 37.6565 46.8947Z" fill="black"/>
<path d="M57.5173 42.3965C50.3418 42.9733 47.9309 47.1263 48.2179 50.2411C48.4475 53.1828 52.8676 55.0286 57.6895 55.4901C57.1729 53.875 56.7137 51.6831 56.7137 48.9721C56.6563 45.8573 57.0581 43.7231 57.5173 42.3965Z" fill="white"/>
<path d="M70.8928 46.8947C69.2281 45.0489 65.8413 42.4533 59.9861 42.3379C59.125 42.3379 58.3214 42.3379 57.5751 42.3956C57.1733 43.7222 56.7715 45.8564 56.7715 48.9712C56.7715 51.7399 57.2307 53.9318 57.7473 55.4892C58.6084 55.5468 59.4695 55.6045 60.3305 55.6045C64.3488 55.6045 68.7689 52.7205 70.9502 50.5863C71.7539 49.7787 71.7539 47.8753 70.8928 46.8947Z" fill="black"/>
<path d="M43.167 57.3359H47.8741C49.137 57.3359 49.9407 58.7203 49.3092 59.8162L46.9557 63.9116C45.291 66.8533 41.0431 66.8533 39.3784 63.9116L37.0248 59.8162C36.3934 58.7203 37.197 57.3359 38.4599 57.3359H43.167Z" fill="black"/>
</svg>
