<svg width="280" height="276" viewBox="0 0 280 276" fill="none" xmlns="http://www.w3.org/2000/svg">
<path d="M65.863 154.313V148.417H74.1406C75.4719 148.417 76.1087 147.839 76.1087 146.394V128.709C76.1087 127.322 75.5877 126.744 74.1406 126.744C72.7513 126.744 72.2303 127.322 72.2303 128.709V134.777H55.5015V128.709C55.5015 127.322 54.9805 126.744 53.5913 126.744C52.1441 126.744 51.6231 127.322 51.6231 128.709V146.394C51.6231 147.839 52.2599 148.417 53.5913 148.417H61.811V154.313H50.0024C48.9604 154.313 48.4395 154.775 48.4395 156.22C48.4395 157.607 48.9604 158.069 50.0024 158.069H77.7295C78.7714 158.069 79.2924 157.607 79.2924 156.22C79.2924 154.775 78.7714 154.313 77.7295 154.313H65.863ZM72.2303 138.361V144.834H55.5015V138.361H72.2303ZM55.733 174.773V164.485C55.733 163.155 55.212 162.577 53.7649 162.577C52.2599 162.577 51.7389 163.155 51.7389 164.485V176.506C51.7389 177.951 52.3178 178.529 53.707 178.529H75.7035C76.7454 178.529 77.2664 178.067 77.2664 176.622C77.2664 175.235 76.7454 174.773 75.7035 174.773H55.733Z" fill="white"/>
<path d="M115.127 126.281C113.679 126.281 113.158 126.859 113.158 128.189V148.128H108.238V128.478C108.238 127.09 107.775 126.512 106.27 126.512C104.823 126.512 104.302 127.09 104.302 128.478V176.333C104.302 177.605 104.823 178.24 106.27 178.24C107.717 178.24 108.238 177.605 108.238 176.333V151.885H113.158V176.622C113.158 177.894 113.679 178.529 115.127 178.529C116.574 178.529 117.153 177.894 117.153 176.622V128.189C117.153 126.859 116.632 126.281 115.127 126.281ZM84.3894 127.437C83.3475 127.437 82.7687 127.957 82.7687 129.344C82.7687 130.674 83.3475 131.136 84.3894 131.136H95.7929L93.0723 147.319H84.4473C83.4054 147.319 82.8844 147.782 82.8844 149.226C82.8844 150.614 83.4054 151.076 84.4473 151.076H92.4355L88.3256 175.408C88.0941 176.795 88.5572 177.431 89.9464 177.605C91.3357 177.836 91.9145 177.489 92.204 176.102L99.787 130.732C100.192 128.651 99.3818 127.437 97.1242 127.437H84.3894Z" fill="white"/>
<path d="M161.201 148.128V128.189C161.201 126.859 160.68 126.281 159.175 126.281C157.67 126.281 157.149 126.859 157.149 128.189V176.622C157.149 177.894 157.67 178.529 159.175 178.529C160.622 178.529 161.201 177.894 161.201 176.622V151.885H164.327C165.369 151.885 165.948 151.423 165.948 150.036C165.948 148.648 165.369 148.128 164.327 148.128H161.201ZM134.747 127.379C133.416 127.379 132.779 127.957 132.779 129.402V174.83C132.779 176.275 133.416 176.853 134.747 176.853H149.161C150.492 176.853 151.129 176.275 151.129 174.83V129.402C151.129 127.957 150.492 127.379 149.161 127.379H134.747ZM136.773 173.212V131.021H147.135V173.212H136.773Z" fill="white"/>
<path d="M182.944 147.03L192.669 156.682C193.769 157.723 194.579 157.723 195.621 156.74C196.663 155.642 196.605 154.891 195.621 153.908L184.912 143.389V128.998C184.912 127.668 184.391 127.09 182.886 127.09C181.381 127.09 180.86 127.668 180.86 128.998V143.447L170.21 153.908C169.225 154.891 169.168 155.642 170.21 156.74C171.251 157.723 172.062 157.723 173.162 156.682L182.944 147.03ZM169.052 172.807C168.01 172.807 167.489 173.27 167.489 174.715C167.489 176.102 168.01 176.564 169.052 176.564H196.779C197.821 176.564 198.342 176.102 198.342 174.715C198.342 173.27 197.821 172.807 196.779 172.807H169.052Z" fill="white"/>
<path d="M230.413 126.281C228.908 126.281 228.387 126.859 228.387 128.189V148.186H223.294C222.194 148.186 221.673 148.648 221.673 150.036C221.673 151.423 222.194 152.001 223.294 152.001H228.387V176.622C228.387 177.894 228.908 178.529 230.413 178.529C231.861 178.529 232.439 177.894 232.439 176.622V128.189C232.439 126.859 231.918 126.281 230.413 126.281ZM207.491 173.154V153.099H217.447C218.489 153.099 219.01 152.579 219.01 151.249C219.01 149.862 218.489 149.4 217.447 149.4H207.491V131.078H219.763C220.804 131.078 221.325 130.616 221.325 129.229C221.325 127.842 220.804 127.379 219.763 127.379H205.465C204.133 127.379 203.497 127.957 203.497 129.402V174.83C203.497 176.275 204.133 176.853 205.465 176.853H221.441C222.483 176.853 223.004 176.333 223.004 175.004C223.004 173.617 222.483 173.154 221.441 173.154H207.491Z" fill="white"/>
<path d="M68.6115 91.0133V79.6192C68.6115 78.8596 68.3138 78.5293 67.4538 78.5293C66.5938 78.5293 66.2961 78.8596 66.2961 79.6192V107.295C66.2961 108.022 66.5938 108.385 67.4538 108.385C68.2807 108.385 68.6115 108.022 68.6115 107.295V93.1601H70.3977C70.9931 93.1601 71.3239 92.8959 71.3239 92.1032C71.3239 91.3106 70.9931 91.0133 70.3977 91.0133H68.6115ZM55.3475 105.182V80.1476C55.3475 79.388 55.0498 79.0577 54.1898 79.0577C53.3628 79.0577 53.0321 79.388 53.0321 80.1476V106.173C53.0321 106.998 53.3959 107.328 54.1567 107.328H62.823C63.4184 107.328 63.7161 107.031 63.7161 106.239C63.7161 105.446 63.4184 105.182 62.823 105.182H55.3475Z" fill="white"/>
<path d="M88.9572 108.385C89.7841 108.385 90.1149 108.022 90.1149 107.295V79.6192C90.1149 78.8596 89.8172 78.5293 88.9572 78.5293C88.0972 78.5293 87.7995 78.8596 87.7995 79.6192V107.295C87.7995 108.022 88.0972 108.385 88.9572 108.385ZM79.1663 98.3452C82.6725 98.3452 84.6902 96.3636 84.6902 93.1601V84.0447C84.6902 80.8412 82.6725 78.8265 79.1663 78.8265C75.6601 78.8265 73.6424 80.8412 73.6424 84.0447V93.1601C73.6424 96.3636 75.6601 98.3452 79.1663 98.3452ZM79.1663 96.2646C76.9832 96.2646 75.8916 95.1417 75.8916 92.9619V84.2099C75.8916 82.0301 76.9832 80.9072 79.1663 80.9072C81.3494 80.9072 82.4409 82.0301 82.4409 84.2099V92.9619C82.4409 95.1417 81.3494 96.2646 79.1663 96.2646ZM85.5171 107.262C86.1456 107.262 86.4433 106.998 86.4433 106.206C86.4433 105.38 86.1456 105.116 85.5171 105.116H73.1131C72.5177 105.116 72.22 105.38 72.22 106.206C72.22 106.998 72.5177 107.262 73.1131 107.262H85.5171Z" fill="white"/>
<path d="M107.792 94.5472V91.1785H112.522C113.283 91.1785 113.647 90.8482 113.647 90.0225V79.9164C113.647 79.1238 113.349 78.7935 112.522 78.7935C111.728 78.7935 111.43 79.1238 111.43 79.9164V83.3842H101.871V79.9164C101.871 79.1238 101.573 78.7935 100.779 78.7935C99.9526 78.7935 99.6549 79.1238 99.6549 79.9164V90.0225C99.6549 90.8482 100.019 91.1785 100.779 91.1785H105.476V94.5472H98.7287C98.1333 94.5472 97.8356 94.8114 97.8356 95.6371C97.8356 96.4297 98.1333 96.6939 98.7287 96.6939H114.573C115.168 96.6939 115.466 96.4297 115.466 95.6371C115.466 94.8114 115.168 94.5472 114.573 94.5472H107.792ZM111.43 85.4319V89.1308H101.871V85.4319H111.43ZM102.003 106.239V100.36C102.003 99.6003 101.706 99.27 100.879 99.27C100.019 99.27 99.721 99.6003 99.721 100.36V107.229C99.721 108.055 100.052 108.385 100.846 108.385H113.415C114.01 108.385 114.308 108.121 114.308 107.295C114.308 106.503 114.01 106.239 113.415 106.239H102.003Z" fill="white"/>
<path d="M135.943 78.5293C135.116 78.5293 134.818 78.8596 134.818 79.6192V91.0133H132.006V79.7843C132.006 78.9917 131.742 78.6614 130.882 78.6614C130.055 78.6614 129.757 78.9917 129.757 79.7843V107.13C129.757 107.857 130.055 108.22 130.882 108.22C131.709 108.22 132.006 107.857 132.006 107.13V93.1601H134.818V107.295C134.818 108.022 135.116 108.385 135.943 108.385C136.769 108.385 137.1 108.022 137.1 107.295V79.6192C137.1 78.8596 136.803 78.5293 135.943 78.5293ZM118.378 79.1898C117.783 79.1898 117.452 79.4871 117.452 80.2797C117.452 81.0393 117.783 81.3035 118.378 81.3035H124.895L123.34 90.551H118.412C117.816 90.551 117.518 90.8152 117.518 91.6408C117.518 92.4335 117.816 92.6977 118.412 92.6977H122.976L120.628 106.602C120.495 107.395 120.76 107.758 121.554 107.857C122.348 107.989 122.679 107.791 122.844 106.998L127.177 81.0723C127.409 79.8834 126.946 79.1898 125.655 79.1898H118.378Z" fill="white"/>
<path d="M155.141 90.0225C155.736 90.0225 156.034 89.7583 156.034 88.9987C156.034 88.2721 155.736 88.0079 155.141 88.0079H144.027V85.3988H154.413C155.174 85.3988 155.505 85.0686 155.505 84.2759V80.0485C155.505 79.2559 155.141 78.9256 154.347 78.9256H142.671C142.042 78.9256 141.745 79.2229 141.745 79.9825C141.745 80.7091 142.042 80.9733 142.671 80.9733H153.255V83.4503H142.869C142.108 83.4503 141.745 83.7805 141.745 84.6062V88.8996C141.745 89.6923 142.108 90.0225 142.869 90.0225H155.141ZM156.662 94.5802C157.258 94.5802 157.556 94.316 157.556 93.5234C157.556 92.7307 157.258 92.4665 156.662 92.4665H140.818C140.223 92.4665 139.925 92.7307 139.925 93.5234C139.925 94.316 140.223 94.5802 140.818 94.5802H156.662ZM155.703 108.385C156.299 108.385 156.596 108.088 156.596 107.328C156.596 106.602 156.299 106.338 155.703 106.338H143.861V103.629H154.744C155.505 103.629 155.835 103.299 155.835 102.474V98.2131C155.835 97.4205 155.472 97.0902 154.678 97.0902H142.538C141.943 97.0902 141.645 97.3875 141.645 98.1471C141.645 98.8406 141.943 99.1049 142.538 99.1049H153.619V101.681H142.737C141.976 101.681 141.645 102.011 141.645 102.837V107.229C141.645 108.055 141.976 108.385 142.737 108.385H155.703Z" fill="white"/>
<path d="M180.631 78.5293C179.771 78.5293 179.473 78.8596 179.473 79.6192V107.295C179.473 108.022 179.771 108.385 180.631 108.385C181.458 108.385 181.788 108.022 181.788 107.295V79.6192C181.788 78.8596 181.491 78.5293 180.631 78.5293ZM171.7 81.2375H175.007C175.636 81.2375 175.967 80.9733 175.967 80.2137C175.967 79.421 175.636 79.1568 175.007 79.1568H166.11C165.481 79.1568 165.15 79.421 165.15 80.2137C165.15 80.9733 165.481 81.2375 166.11 81.2375H169.384V97.0242L164.72 105.743C164.39 106.371 164.39 106.899 165.15 107.328C165.911 107.725 166.374 107.428 166.672 106.833L170.542 99.5672L174.445 106.866C174.776 107.461 175.206 107.758 175.967 107.361C176.727 106.932 176.727 106.404 176.43 105.776L171.7 96.9581V81.2375Z" fill="white"/>
<path d="M201.498 78.5293C200.638 78.5293 200.34 78.8596 200.34 79.6192V87.3474H197.165C196.536 87.3474 196.238 87.6116 196.238 88.4042C196.238 89.1969 196.536 89.5271 197.165 89.5271H200.34V94.6132H197.165C196.536 94.6132 196.238 94.8775 196.238 95.6701C196.238 96.4627 196.536 96.793 197.165 96.793H200.34V107.295C200.34 108.022 200.638 108.385 201.498 108.385C202.325 108.385 202.655 108.022 202.655 107.295V79.6192C202.655 78.8596 202.358 78.5293 201.498 78.5293ZM186.249 79.1898C185.654 79.1898 185.323 79.4871 185.323 80.2797C185.323 81.0393 185.654 81.3035 186.249 81.3035H193.526L191.971 90.551H186.448C185.819 90.551 185.521 90.8152 185.521 91.6408C185.521 92.4335 185.819 92.6977 186.448 92.6977H191.608L189.259 106.602C189.127 107.395 189.391 107.758 190.152 107.857C190.979 107.989 191.31 107.824 191.442 106.998L195.808 81.0723C196.007 79.8834 195.577 79.1898 194.287 79.1898H186.249Z" fill="white"/>
<path d="M223.225 91.0133V79.6192C223.225 78.8596 222.927 78.5293 222.067 78.5293C221.207 78.5293 220.91 78.8596 220.91 79.6192V107.295C220.91 108.022 221.207 108.385 222.067 108.385C222.894 108.385 223.225 108.022 223.225 107.295V93.1601H225.011C225.606 93.1601 225.937 92.8959 225.937 92.1032C225.937 91.3106 225.606 91.0133 225.011 91.0133H223.225ZM209.266 105.314V93.8536H215.948C216.709 93.8536 217.039 93.5234 217.039 92.6977V80.2797C217.039 79.4871 216.676 79.1568 215.882 79.1568H207.91C207.315 79.1568 206.984 79.454 206.984 80.2467C206.984 81.0063 207.315 81.2705 207.91 81.2705H214.79V91.773H208.109C207.348 91.773 206.984 92.1032 206.984 92.9289V106.272C206.984 107.097 207.348 107.428 208.109 107.428H217.271C217.866 107.428 218.164 107.13 218.164 106.338C218.164 105.578 217.866 105.314 217.271 105.314H209.266Z" fill="white"/>
<path d="M229.729 100.096C230.655 100.096 230.92 99.7654 230.92 98.9727V80.676C230.92 79.9164 230.655 79.5531 229.729 79.5531C228.836 79.5531 228.571 79.9164 228.571 80.676V98.9727C228.571 99.7654 228.836 100.096 229.729 100.096ZM229.729 107.428C230.655 107.428 230.92 107.064 230.92 106.272V104.719C230.92 103.894 230.655 103.563 229.729 103.563C228.836 103.563 228.571 103.894 228.571 104.719V106.272C228.571 107.064 228.836 107.428 229.729 107.428Z" fill="white"/>
<g opacity="0.1">
<path d="M273.909 235.902C274.742 238.031 275.576 240.067 276.316 242.196C277.15 244.51 278.724 246.916 276.224 249.045C274.094 250.804 271.872 249.6 269.927 248.49C266.409 246.453 264.279 247.379 263.168 251.081C261.687 255.894 258.724 256.635 254.557 254.321C251.224 252.47 249.001 253.025 247.705 256.912C246.964 258.856 246.501 261.633 243.538 261.448C240.39 261.355 239.742 258.578 238.909 256.264C236.131 249.045 233.538 241.733 232.52 233.958C231.687 227.294 234.372 222.944 240.113 219.89C257.705 210.449 265.205 213.966 273.909 235.902Z" fill="white"/>
<path d="M46.0422 269.655C45.3941 270.858 44.7459 272.062 44.0978 273.265C43.357 274.561 42.8941 276.319 40.857 275.949C39.1903 275.671 38.82 274.098 38.6348 272.802C38.1718 270.396 36.8755 269.748 34.7459 270.673C31.8755 271.877 30.394 270.766 29.8384 267.989C29.3755 265.675 28.2644 264.935 25.9495 265.768C24.7458 266.231 23.2643 267.064 22.1532 265.675C20.9495 264.102 21.968 262.714 22.7088 261.418C25.0236 257.253 27.3384 253.088 30.5792 249.478C33.357 246.424 36.5051 245.961 40.2089 247.349C51.5052 251.977 52.8941 256.882 46.0422 269.655Z" fill="white"/>
<path d="M31.0212 112.589C31.4842 114.255 31.9472 115.921 32.3176 117.587C32.7805 119.345 33.799 121.382 31.6694 122.77C29.9101 123.973 28.3361 122.77 26.9472 121.844C24.4471 119.993 22.7805 120.549 21.6693 123.233C20.1879 126.75 17.873 127.027 14.9101 124.991C12.5026 123.325 10.836 123.603 9.53966 126.38C8.89151 127.86 8.24336 129.804 6.02112 129.526C3.6137 129.156 3.42852 127.027 2.96555 125.176C1.48406 119.438 0.0951674 113.792 0.00257439 107.776C-0.0900187 102.685 2.3174 99.6308 6.85446 97.7797C20.9286 92.0413 26.2064 95.2807 31.0212 112.589Z" fill="white"/>
<path d="M278.354 102.963C277.984 104.629 277.521 106.295 277.15 107.961C276.687 109.719 276.595 111.941 274.095 112.218C271.965 112.403 271.132 110.645 270.391 109.164C269.095 106.387 267.336 106.017 265.021 107.868C262.058 110.182 259.836 109.349 258.261 106.202C256.965 103.611 255.391 103.055 252.891 104.814C251.595 105.739 250.113 107.22 248.261 105.832C246.317 104.351 247.15 102.407 247.613 100.556C249.095 94.8178 250.576 89.1718 253.354 83.8962C255.669 79.3609 259.373 77.88 264.187 78.4354C279.373 80.1014 282.428 85.4696 278.354 102.963Z" fill="white"/>
<path d="M107.522 26.5114C107.151 27.8997 106.873 29.3806 106.41 30.769C105.947 32.2499 105.947 34.1936 103.818 34.3787C102.059 34.5638 101.318 32.9903 100.67 31.6945C99.5586 29.2881 98.0771 29.0104 96.1326 30.5839C93.54 32.6201 91.6882 31.8797 90.3919 29.103C89.2807 26.8816 87.8918 26.4189 85.7622 27.8997C84.6511 28.7328 83.3548 29.936 81.8733 28.8253C80.2066 27.5295 80.9474 25.8635 81.3177 24.2901C82.5214 19.3846 83.9103 14.5717 86.2252 10.0364C88.2622 6.14909 91.3178 4.85331 95.4845 5.31609C108.447 6.88954 111.04 11.5173 107.522 26.5114Z" fill="white"/>
<path d="M207.244 11.8868C207.614 13.09 208.077 14.2007 208.355 15.4039C208.725 16.6997 209.558 18.0881 208.169 19.1062C206.966 20.0317 205.762 19.2913 204.744 18.6434C202.892 17.4402 201.688 17.903 201.04 19.8466C200.114 22.4382 198.447 22.7159 196.318 21.4201C194.558 20.3094 193.355 20.5871 192.521 22.6233C192.058 23.6414 191.781 25.1223 190.114 25.0298C188.355 24.8447 188.169 23.3638 187.706 22.068C186.41 18.0881 185.206 14.0156 184.836 9.75803C184.558 6.14834 186.132 3.83444 189.281 2.26099C199.095 -2.36681 203.077 -0.238022 207.244 11.8868Z" fill="white"/>
</g>
</svg>
