<svg width="144" height="139" viewBox="0 0 144 139" fill="none" xmlns="http://www.w3.org/2000/svg">
<path d="M24.6641 113.476C24.5875 113.399 24.5875 113.322 24.5109 113.322C24.5875 113.399 24.5875 113.476 24.6641 113.476Z" fill="black"/>
<path d="M21.8286 107.402C21.752 107.018 21.6754 106.633 21.5988 106.172C21.8286 106.172 21.9818 106.172 22.2116 106.172C22.2882 106.556 22.3648 106.864 22.4414 107.248C22.4414 107.325 22.4414 107.325 22.4414 107.402C22.2116 107.479 21.9818 107.402 21.8286 107.402Z" fill="black"/>
<path d="M34.3153 81.878C34.3153 81.878 34.3919 81.878 34.3153 81.878C34.7749 81.6474 35.0813 81.4936 35.4643 81.3398C35.6175 81.4936 35.7706 81.6474 35.9238 81.8011C35.5409 81.9549 35.1579 82.1086 34.7749 82.3393C34.6217 82.1855 34.4685 82.0318 34.3153 81.878Z" fill="black"/>
<path d="M12.638 102.098C13.021 101.406 13.5572 100.714 14.0168 100.022C14.3997 99.4074 14.7827 98.7923 15.1657 98.2542C16.0849 96.6397 16.9274 95.0252 17.77 93.4107C17.77 93.4107 18.3827 87.0296 18.3827 86.8758C18.2295 76.497 21.5997 66.3487 27.5742 57.9688C30.638 53.6635 34.3146 49.8963 38.5274 46.7442C40.7487 45.0528 43.1232 43.5921 45.804 42.6695C46.7232 42.362 47.6423 42.1314 48.5614 41.9007C54.1529 40.44 59.9742 39.5174 65.7189 38.9793C74.987 38.0567 84.638 37.9798 93.5997 40.5169C95.9742 41.1319 98.1955 42.0545 100.417 43.0539C102.944 44.2071 105.395 45.4372 107.77 46.8211C109.991 48.2049 112.059 49.7425 113.974 51.5877C115.966 53.5866 117.574 55.8161 119.106 58.1994C122.247 63.2735 124.544 68.8089 126.613 74.3443C128.757 80.1104 130.672 86.1839 131.208 92.3344C131.744 98.1773 130.825 104.02 128.298 109.325C125.847 114.322 122.247 118.781 118.264 122.548C110.451 130.006 100.723 135.618 90.1529 137.925C84.0253 139.231 77.7444 139.462 71.6934 137.925C68.6295 137.156 65.7189 136.003 62.8083 134.849C60.0508 133.773 57.2934 132.62 54.5359 131.39C53.004 130.698 51.4721 130.006 49.9402 129.314C47.6423 129.698 45.421 130.698 43.2763 131.313C40.2125 132.158 36.9955 132.158 33.9317 131.467C27.7274 130.083 22.5955 125.931 19.3785 120.55C17.5402 117.551 16.3146 114.168 15.7019 110.709C14.0934 110.017 12.638 108.633 12.1019 107.019C11.3359 105.25 11.7955 103.559 12.638 102.098Z" fill="white"/>
<path d="M58.5193 42.5916L52.0087 43.2067C51.3959 43.2836 50.7831 42.8992 50.6299 42.2841C48.7916 35.903 46.3406 0.384221 69.2427 0.0766985C100.111 -0.384585 97.2768 35.288 92.6044 44.898C92.3746 45.3593 91.8385 45.59 91.3023 45.4362C90.0767 45.0518 87.7789 44.3599 86.0938 44.2061C85.481 44.1292 85.0214 43.5142 85.1746 42.8992L85.864 39.8239C85.864 39.7471 85.7874 39.7471 85.7108 39.7471L84.1023 43.3604C83.8725 43.8217 83.4129 44.0524 82.8767 43.9755C79.9661 43.4373 69.9321 41.6691 58.5193 42.5916Z" fill="black"/>
<path d="M80.4258 43.9751C80.1194 45.8971 80.1194 48.8185 79.2003 50.5099C78.2811 52.2013 76.5194 52.8932 74.6045 53.2776C71.1577 53.8927 67.3279 53.047 65.7194 49.8949C64.3407 47.1272 64.8769 43.8213 65.3364 40.7461" fill="#FFA1A1"/>
<path d="M51.2419 27.5232C51.2419 27.5232 49.5568 16.683 56.0674 8.53369C62.578 0.384351 75.7525 3.45957 77.8206 4.07462C86.5525 6.68855 94.5951 20.9883 90.6121 31.6747C86.6291 42.3611 79.5823 43.745 79.5823 43.745L51.2419 27.5232Z" fill="black"/>
<path d="M51.9075 30.6479C50.4648 20.0033 56.839 10.3441 66.1447 9.07347C75.4505 7.80283 84.1638 15.4019 85.6065 26.0465C87.0492 36.6911 80.675 46.3504 71.3692 47.621C62.0635 48.8916 53.3502 41.2925 51.9075 30.6479Z" fill="#FFC5C4"/>
<path d="M76.2899 27.9863C79.3538 28.1401 80.5027 29.9083 80.4261 31.2153C80.3495 32.5223 78.5112 33.368 76.4431 33.5986C76.6729 32.9067 76.8261 31.9841 76.7495 30.754C76.6729 29.4471 76.5197 28.5245 76.2899 27.9863Z" fill="white"/>
<path d="M70.6219 30.0609C71.3113 29.2152 72.7666 28.062 75.2943 27.9082C75.6772 27.9082 75.9836 27.9082 76.3666 27.9082C76.5964 28.4464 76.7496 29.3689 76.8262 30.7528C76.8262 31.906 76.673 32.9054 76.5198 33.5974C76.1368 33.6742 75.7538 33.6742 75.4474 33.6742C73.6857 33.7511 71.7708 32.521 70.7751 31.6754C70.2389 31.3678 70.2389 30.5221 70.6219 30.0609Z" fill="black"/>
<path d="M61.9657 28.4473C65.0296 28.601 66.1785 30.3693 66.1019 31.6762C66.0253 32.9832 64.187 33.8289 62.1189 34.0595C62.3487 33.3676 62.5019 32.4451 62.4253 31.215C62.3487 29.908 62.1955 28.9854 61.9657 28.4473Z" fill="white"/>
<path d="M56.2977 30.5218C56.9871 29.6761 58.4424 28.5229 60.97 28.3691C61.353 28.3691 61.6594 28.3691 62.0424 28.3691C62.2722 28.9073 62.4254 29.8299 62.502 31.2137C62.502 32.3669 62.3488 33.3664 62.1956 34.0583C61.8126 34.1352 61.4296 34.1352 61.1232 34.1352C59.3615 34.2121 57.4466 32.982 56.4509 32.1363C55.9147 31.7519 55.9147 30.9831 56.2977 30.5218Z" fill="black"/>
<path d="M68.1665 35.9801C68.4729 35.9801 68.7793 35.7494 68.7793 35.4419C68.7793 35.1344 68.5495 34.8269 68.2431 34.8269L67.0942 34.75C66.7878 34.75 66.4814 34.9806 66.4814 35.2882C66.4814 35.5957 66.7112 35.9032 67.0176 35.9032L68.1665 35.9801Z" fill="black"/>
<path d="M66.7652 40.2192C66.6887 38.8201 67.5169 37.6369 68.6151 37.5763C69.7133 37.5158 70.6657 38.6009 70.7422 39.9999C70.8188 41.399 69.9906 42.5823 68.8924 42.6428C67.7941 42.7034 66.8418 41.6183 66.7652 40.2192Z" fill="white"/>
<path d="M68.7844 43.2846C68.861 43.2846 68.861 43.2846 68.9376 43.2846C69.627 43.2077 70.3163 42.8233 70.7759 42.2082C71.2355 41.5932 71.3887 40.8244 71.3887 39.9787C71.3121 39.133 71.0823 38.4411 70.5461 37.826C70.01 37.211 69.3206 36.9035 68.6312 36.9804C67.9419 37.0572 67.2525 37.4416 66.7929 38.0567C66.3334 38.6717 66.1802 39.4405 66.1802 40.2862C66.2568 41.1319 66.4865 41.8238 67.0227 42.4389C67.4823 42.977 68.0951 43.2846 68.7844 43.2846ZM68.7078 38.2105C69.0142 38.2105 69.3206 38.3642 69.627 38.6717C69.9334 39.0561 70.1631 39.5174 70.1631 40.0556C70.1631 40.5937 70.0865 41.1319 69.7802 41.5163C69.5504 41.9007 69.244 42.0545 68.861 42.0545C68.5546 42.0545 68.1717 41.9007 67.9419 41.5932C67.6355 41.2088 67.4057 40.7475 67.4057 40.2093C67.4057 39.6712 67.4823 39.133 67.7887 38.7486C67.9419 38.4411 68.3248 38.2105 68.7078 38.2105C68.6312 38.2105 68.7078 38.2105 68.7078 38.2105Z" fill="#1A1A1A"/>
<path d="M85.6337 28.0613C85.6337 28.0613 82.9529 24.6017 69.3188 25.2167C55.6848 25.8317 50.9358 28.2919 50.9358 28.2919C50.9358 28.2919 47.7188 9.22555 67.4805 6.91914C87.2422 4.61272 86.3231 24.8323 85.6337 28.0613Z" fill="black"/>
<path d="M85.2112 35.3591C83.9742 35.0747 83.3008 33.4015 83.7069 31.6219C84.1131 29.8423 85.4452 28.6302 86.6821 28.9147C87.9191 29.1991 88.5926 30.8723 88.1864 32.6519C87.7802 34.4315 86.4482 35.6436 85.2112 35.3591Z" fill="#FFC5C4"/>
<path d="M70.6207 10.4551C70.6207 10.4551 74.2973 12.5309 73.3016 25.293L63.7271 26.6769C63.7271 26.6769 63.0378 11.5314 70.6207 10.4551Z" fill="#FFC5C4"/>
<path d="M35.464 81.4169C33.8555 79.7256 31.9406 78.2648 29.8725 77.1885C26.7321 75.6509 23.1321 74.959 19.6853 75.4202C16.0853 75.8815 12.5619 77.2654 9.65124 79.418C6.66401 81.5707 4.13635 84.4922 2.52784 87.8749C0.689541 91.7189 -0.153019 96.0242 0.153366 100.33C0.153366 100.483 0.229958 100.56 0.306553 100.637C0.306553 100.637 1.68528 107.71 3.29379 107.864C3.29379 107.864 4.21294 116.167 8.04273 118.781C13.4044 122.471 18.3832 118.781 18.3832 118.781C18.3832 118.781 15.9321 113.399 15.6257 110.632L14.5534 110.016C14.5534 110.016 16.698 107.018 22.1363 106.941C22.1363 106.941 19.8385 98.4844 23.3619 92.6415C26.8853 86.7986 29.7959 84.7997 34.4683 82.2626L35.6172 81.8782V81.4169H35.464Z" fill="#FFC5C4"/>
<path d="M0.228355 100.636C0.304951 99.3292 0.534731 97.9453 1.0709 96.7152C1.1475 96.4846 1.2241 96.3308 1.37729 96.1002C1.60708 95.6389 1.83687 95.1776 2.14325 94.7163C2.52623 94.1013 3.06239 93.4862 3.36877 92.7943C3.67516 92.1024 4.82409 92.4099 4.51771 93.1018C3.98154 94.4088 3.06239 95.4083 2.44963 96.6383C1.83686 97.9453 1.45388 99.4061 1.45388 100.79C1.37729 103.019 1.99006 105.172 3.29218 106.94C3.36878 106.325 3.44537 105.787 3.59856 105.249C4.28792 102.251 5.81984 99.406 8.27091 97.5609C8.88367 97.0996 9.72622 97.9453 9.11345 98.4066C5.13048 101.559 3.67517 107.248 4.67091 112.091C5.20708 114.705 6.5858 117.165 8.80707 118.626C9.80282 119.318 10.9517 119.779 12.1773 119.856C13.556 120.01 14.9347 119.702 16.2369 119.164C16.8496 118.934 17.4624 118.626 18.0752 118.242C18.2284 118.626 18.4581 118.934 18.6113 119.318C18.3049 119.472 18.0752 119.626 17.7688 119.779C15.0879 121.163 12.1007 121.625 9.34324 120.241C4.97729 118.165 3.13899 113.321 3.21558 108.709C1.30069 106.633 0.304951 103.942 0.228355 101.174C0.228355 100.944 0.228355 100.79 0.228355 100.636Z" fill="#FF8F8F"/>
<path d="M15.5477 109.863C15.0115 110.478 14.6286 111.247 14.3988 112.092C14.2456 112.861 13.0966 112.553 13.2498 111.785C14.0924 108.094 17.9988 106.403 21.369 106.326C21.4456 106.326 21.4456 106.326 21.5222 106.326C21.5988 106.711 21.6754 107.172 21.752 107.556C19.4541 107.479 17.2328 108.018 15.5477 109.863Z" fill="#FF8F8F"/>
<path d="M129.216 119.472C129.599 119.549 130.058 119.626 130.441 119.703C132.356 119.933 134.424 119.779 136.11 118.626C139.863 116.012 140.858 107.709 140.858 107.709C142.467 107.555 143.846 100.482 143.846 100.482C143.846 100.636 143.846 100.867 143.846 101.021C143.846 103.865 142.85 106.556 140.858 108.555C140.935 113.245 139.173 118.088 134.731 120.087C131.897 121.394 128.986 120.933 126.305 119.626C126.152 119.549 124.314 118.319 122.935 117.473C123.088 117.319 123.165 117.165 123.318 117.012C124.467 117.704 126.688 118.857 129.216 119.472Z" fill="#FF8F8F"/>
<path d="M127.838 119.011C128.298 119.165 128.757 119.318 129.217 119.472C126.766 118.857 124.544 117.704 123.319 117.012C123.472 116.858 123.549 116.705 123.702 116.551C125.234 117.473 127.378 118.857 127.838 119.011Z" fill="#FF8F8F"/>
<path d="M140.859 107.709C140.859 107.709 139.94 116.012 136.11 118.626C134.425 119.779 132.357 120.01 130.442 119.702C130.901 119.779 131.361 119.779 131.821 119.702C133.046 119.625 134.195 119.164 135.191 118.472C137.489 117.011 138.791 114.551 139.327 111.937C140.323 107.094 138.944 101.404 134.884 98.2523C134.272 97.791 135.114 96.9453 135.727 97.4066C138.178 99.3286 139.71 102.173 140.399 105.095C140.553 105.633 140.629 106.248 140.706 106.786C142.008 105.018 142.621 102.865 142.544 100.636C142.544 99.1749 142.161 97.7141 141.548 96.4841C140.935 95.254 139.94 94.2545 139.48 92.9475C139.174 92.2556 140.323 91.9481 140.629 92.64C140.935 93.3319 141.395 93.947 141.855 94.562C142.161 95.0233 142.391 95.4846 142.621 95.9459C142.697 96.1765 142.774 96.3303 142.927 96.5609C143.463 97.791 143.693 99.098 143.77 100.482C143.77 100.482 142.391 107.478 140.859 107.709Z" fill="#FF8F8F"/>
<path d="M114.204 77.0342C117.344 75.4966 120.944 74.8047 124.391 75.2659C125.31 75.3428 126.229 75.5735 127.072 75.8041C129.676 76.496 132.204 77.6492 134.425 79.2637C137.412 81.4164 139.94 84.3379 141.548 87.7206C143.387 91.5646 144.229 95.8699 143.923 100.175C143.923 100.329 143.846 100.406 143.77 100.483C143.693 99.1758 143.463 97.7919 142.927 96.5619C142.85 96.3312 142.774 96.1775 142.621 95.9468C142.391 95.4855 142.161 95.0242 141.855 94.563C141.472 93.9479 140.935 93.3329 140.629 92.641C140.323 91.949 139.174 92.2565 139.48 92.9485C140.016 94.2554 140.935 95.2549 141.548 96.485C142.161 97.7919 142.544 99.2527 142.544 100.637C142.621 102.866 142.008 105.019 140.706 106.787C140.629 106.172 140.553 105.634 140.399 105.096C139.71 102.097 138.178 99.2527 135.727 97.4075C135.114 96.9463 134.272 97.792 134.884 98.2532C138.867 101.405 140.323 107.094 139.327 111.938C138.791 114.552 137.412 117.012 135.191 118.473C134.195 119.165 133.046 119.626 131.821 119.703C131.361 119.78 130.901 119.703 130.442 119.703C129.982 119.626 129.599 119.549 129.216 119.472C128.757 119.318 128.297 119.165 127.838 119.011C127.455 118.857 125.31 117.473 123.701 116.474C125.463 114.244 126.918 111.861 128.144 109.324C128.221 109.401 128.374 109.555 128.45 109.632C128.987 110.247 129.37 111.015 129.599 111.861C129.753 112.63 130.901 112.322 130.748 111.554C130.442 110.17 129.676 109.093 128.68 108.248C127.072 106.864 124.697 106.172 122.629 106.095C122.553 106.095 122.553 106.095 122.476 106.095C122.399 106.326 122.399 106.556 122.323 106.787C122.246 106.787 122.17 106.787 122.016 106.787C122.016 106.787 124.008 98.5608 120.791 92.4872C117.038 85.4911 114.357 84.6454 109.684 82.1083L108.535 81.7239H107.999C109.608 79.9557 112.059 78.0336 114.204 77.0342Z" fill="#FFC5C4"/>
<path d="M122.246 107.248C122.322 107.094 122.322 106.863 122.322 106.71C122.399 106.479 122.399 106.248 122.475 106.018C122.552 106.018 122.552 106.018 122.629 106.018C124.773 106.094 127.071 106.786 128.68 108.17C129.675 109.016 130.441 110.092 130.748 111.476C130.901 112.245 129.752 112.552 129.599 111.784C129.446 110.938 129.063 110.246 128.45 109.554C128.373 109.477 128.22 109.323 128.143 109.247C128.143 109.247 128.143 109.247 128.143 109.17C128.143 109.17 128.143 109.17 128.143 109.247C126.535 107.786 124.39 107.325 122.246 107.248Z" fill="#FFA1A1"/>
<path d="M22.3652 107.324C22.3652 107.401 22.3652 107.401 22.3652 107.478C22.1354 107.478 21.9823 107.478 21.7525 107.478C21.6759 107.094 21.5993 106.709 21.5227 106.248C21.7525 106.248 21.9057 106.248 22.1354 106.248C22.212 106.556 22.2886 106.94 22.3652 107.324Z" fill="white"/>
<path d="M35.4623 81.416C35.6155 81.5698 35.7687 81.7235 35.9219 81.8773C35.5389 82.0311 35.1559 82.1848 34.7729 82.4155C34.6198 82.2617 34.4666 82.1079 34.3134 81.9542H34.39C34.7729 81.7235 35.0793 81.5698 35.4623 81.416Z" fill="white"/>
<path d="M106.008 67.8837C104.476 68.345 102.944 68.8832 101.566 69.5751C100.876 69.8826 100.187 70.267 99.4974 70.6514C98.8847 71.0358 98.2719 71.4202 97.6591 71.7277C97.6591 71.2665 97.6591 70.8052 97.6591 70.3439C98.3485 69.9595 99.0379 69.4982 99.7272 69.1138C101.106 68.345 102.561 67.73 104.093 67.1918C110.068 65.116 116.808 64.8854 122.859 66.6536C123.166 66.7305 123.395 66.8074 123.702 66.8843C123.931 67.3455 124.161 67.8837 124.314 68.345C118.417 66.3461 111.983 66.1923 106.008 67.8837Z" fill="black"/>
<path d="M94.8256 72.2668C93.9065 72.1899 92.9873 72.0361 91.9916 71.9593C90.0767 71.7286 88.1618 71.5749 86.2469 71.4211C78.5873 70.8061 70.8511 70.5754 63.1916 70.7292C59.3618 70.8061 55.532 70.9598 51.7022 71.2673C50.7064 71.3442 49.7107 71.4211 48.7915 71.498C47.949 71.5749 47.0299 71.7286 46.1107 71.5749C45.9575 71.5749 45.8043 71.498 45.7277 71.498C45.7277 71.1136 45.7277 70.6523 45.7277 70.2679C45.8809 70.3448 46.0341 70.3448 46.1873 70.4216C47.1065 70.6523 48.1022 70.4216 49.0213 70.3448C52.8511 70.0372 56.7575 69.8066 60.5873 69.6528C68.2469 69.4222 75.983 69.576 83.6426 70.0372C87.4724 70.2679 91.3022 70.7292 95.132 71.1136C95.8213 71.1905 96.4341 71.0367 97.0469 70.806C97.0469 71.2673 97.0469 71.6517 97.0469 72.113C96.2809 72.2668 95.5916 72.3437 94.8256 72.2668Z" fill="black"/>
<path d="M43.7365 69.2684C44.1961 69.499 44.6557 69.7296 45.1152 69.9603C45.1152 70.4216 45.1152 70.806 45.1152 71.2672C44.6557 71.0366 44.1961 70.806 43.7365 70.5753C42.894 70.1909 42.128 69.8065 41.2854 69.4221C35.6174 66.9619 29.4897 65.5012 23.2855 65.0399C23.4386 64.6555 23.6684 64.2711 23.8982 63.8867C29.0301 64.2711 34.0855 65.3475 38.911 67.1926C40.5195 67.8076 42.128 68.4995 43.7365 69.2684Z" fill="black"/>
<path d="M45.7266 70.1903C45.7266 70.5747 45.7266 71.036 45.7266 71.4204C45.4968 71.3435 45.3436 71.2667 45.1138 71.1898C45.1138 70.7285 45.1138 70.3441 45.1138 69.8828C45.3436 70.0366 45.4968 70.1135 45.7266 70.1903Z" fill="black"/>
<path d="M44.5012 124.315C43.1225 119.702 42.1267 114.859 41.9735 110.092C41.7437 102.25 44.4246 94.4854 49.7863 88.6424C52.4671 85.721 55.6842 83.3377 59.3608 81.877C59.8203 82.0307 61.0459 82.2614 61.582 82.4151C61.582 82.6458 60.6629 82.7226 60.4331 82.7995C53.6927 85.3366 48.4842 90.872 45.5735 97.4068C44.1182 100.79 43.2756 104.48 43.1991 108.247C43.0459 113.09 43.965 117.78 45.1905 122.47C45.6501 124.161 46.1097 125.853 46.8757 127.467C46.3395 127.16 45.7267 126.775 45.1905 126.468C44.8842 125.699 44.6544 125.007 44.5012 124.315Z" fill="black"/>
<path d="M46.8759 127.391C47.0291 127.698 47.1823 128.083 47.4121 128.39C46.7993 128.006 46.1866 127.621 45.5738 127.237C45.4206 126.929 45.344 126.622 45.1908 126.314C45.727 126.699 46.2632 127.006 46.8759 127.391Z" fill="black"/>
<path d="M66.178 121.7C64.9524 112.859 65.1822 103.326 70.4673 95.7914C72.3822 93.0237 74.9099 90.7173 77.8971 89.1797C78.3567 89.4103 78.7396 89.641 79.1992 89.8716C72.7652 92.7162 68.7056 99.4048 67.3269 106.17C66.4077 110.783 66.5609 115.55 67.0971 120.239C67.7099 125.006 68.7056 129.696 69.9311 134.385C70.2375 135.539 70.5439 136.692 70.8503 137.768C70.3907 137.614 69.9311 137.538 69.4716 137.384C69.395 137.076 69.3184 136.692 69.1652 136.384C67.9397 131.541 66.8673 126.62 66.178 121.7Z" fill="black"/>
<path d="M96.9707 80.9551C93.5239 82.262 90.0771 83.9534 87.8558 86.8749C86.4005 88.7969 85.4813 91.1033 85.6345 93.5635C85.4047 93.3328 85.175 93.1791 84.9452 92.9484C84.792 92.7947 84.5622 92.6409 84.409 92.4872C84.5622 88.1819 87.626 84.5685 91.1494 82.4158C91.992 81.8776 92.9111 81.4164 93.8303 80.9551C94.826 80.9551 95.8984 80.9551 96.9707 80.9551Z" fill="black"/>
<path d="M21.0633 98.0217C21.676 93.947 23.8973 90.3336 26.6548 87.3353C28.8761 84.952 31.4803 83.1837 34.3909 81.7999C37.7612 80.1854 41.4378 79.4166 45.1143 79.2628C45.1143 74.9575 45.1143 70.6522 45.1143 66.3469C45.1143 65.9625 45.7271 65.9625 45.7271 66.3469C45.7271 70.6522 45.7271 74.9575 45.7271 79.1859C47.259 79.1859 48.7909 79.1859 50.3229 79.4166C56.6037 80.1085 62.808 81.8768 68.6292 84.1063C70.5441 84.8751 72.5356 85.7208 74.3739 86.5665C74.5271 86.3358 74.8335 86.1821 74.9867 86.0283C75.4463 85.7208 75.9058 85.4133 76.442 85.1826C77.5909 84.5676 78.8165 84.0294 80.042 83.4912C83.4888 82.0305 87.1654 81.0311 90.9186 80.5698C92.8335 80.3392 94.7484 80.1854 96.6633 80.2623C96.7399 80.2623 96.8931 80.2623 96.9697 80.2623C96.9697 75.957 96.9697 71.7285 96.9697 67.4232C96.9697 67.0388 97.5824 67.0388 97.5824 67.4232C97.5824 71.7285 97.5824 76.0338 97.5824 80.2623C98.6548 80.3392 99.6505 80.416 100.723 80.4929C101.336 80.4929 102.025 80.4929 102.638 80.5698C105.778 80.8004 108.919 81.5692 111.829 82.8762C115.812 84.6445 119.106 87.6428 121.021 91.6406C122.246 94.2545 122.859 97.176 123.089 100.097C123.319 102.711 123.089 105.402 122.323 107.862C121.251 111.168 119.182 114.09 116.425 116.089C115.812 116.55 115.123 116.934 114.357 117.319C114.28 117.319 114.204 117.396 114.204 117.396C113.974 117.549 113.668 117.703 113.438 117.857C110.221 119.548 106.314 119.318 103.021 117.934C101.872 117.472 100.723 116.857 99.7271 116.165C99.6505 115.858 99.5739 115.55 99.4973 115.32C99.5739 115.397 99.6505 115.474 99.7271 115.474C103.251 117.857 107.693 119.318 111.906 117.857C112.595 117.626 113.285 117.242 113.897 116.857C114.051 116.781 113.974 116.857 114.127 116.781C114.433 116.627 114.663 116.55 114.893 116.396C117.344 115.012 119.336 112.936 120.638 110.476C123.089 105.94 123.012 100.328 121.787 95.4077C120.638 90.9487 117.957 87.2584 114.051 84.7982C111.14 83.03 107.77 81.9536 104.476 81.4924C103.48 81.3386 102.485 81.2617 101.489 81.2617C100.11 81.2617 98.7314 81.0311 97.3526 81.0311C93.6761 80.9542 89.9995 81.3386 86.3995 82.2612C83.1824 83.03 80.1952 84.3369 77.208 85.7977C76.825 86.0283 76.3654 86.1821 75.9824 86.4896C75.7526 86.6434 75.2931 86.874 75.0633 87.1046C75.8292 87.489 76.6718 87.8734 77.4378 88.2578C80.1186 89.6417 82.7229 91.1793 85.0207 93.1013C85.3271 93.332 85.6335 93.6395 85.9399 93.8701C83.7186 91.9481 81.2675 90.3336 78.6633 88.9498C78.4335 88.796 78.2037 89.0266 78.2037 89.2573C76.442 88.3347 74.6803 87.4122 72.842 86.6434C67.0973 84.0294 60.9697 82.1074 54.7654 80.8773C49.3271 79.801 43.659 79.4935 38.2207 81.1848C37.4548 81.4155 36.6888 81.723 35.9995 81.9536C35.6165 82.1074 35.2335 82.2612 34.8505 82.4918C33.4718 83.1837 32.0931 83.9525 30.7909 84.7982C30.4846 84.952 30.2548 85.1826 29.9484 85.4133C29.7952 85.4901 29.642 85.6439 29.5654 85.7208C29.5654 85.7208 29.4888 85.7977 29.4122 85.7977C29.3356 85.7977 29.3356 85.8745 29.259 85.8745C28.9526 86.1052 28.6463 86.4127 28.3399 86.6434C25.7356 89.0266 23.5143 92.1019 22.3654 95.4846C21.5994 97.7141 21.3697 100.097 21.5994 102.404C21.7526 103.711 21.9058 105.018 22.1356 106.325C22.2122 106.709 22.2888 107.017 22.3654 107.401C22.3654 107.478 22.3654 107.478 22.3654 107.555C22.6718 108.862 23.0548 110.169 23.7441 111.322C24.4335 112.629 25.3526 113.705 26.425 114.705C27.8803 116.089 29.4888 117.242 31.1739 118.318C33.625 119.856 36.1526 121.316 38.6803 122.7C42.5101 124.853 46.3399 127.159 50.0931 129.543C49.9399 129.466 49.8633 129.466 49.7101 129.389C49.4803 129.466 49.1739 129.466 48.9441 129.543C46.5697 128.082 44.1952 126.621 41.7441 125.16C36.9952 122.393 31.8633 119.856 27.4973 116.473C25.0463 114.551 23.1314 112.245 22.2122 109.323C21.9058 108.324 21.676 107.401 21.5229 106.402C21.4463 105.863 21.3697 105.325 21.2931 104.787C20.9867 102.404 20.6803 100.251 21.0633 98.0217Z" fill="black"/>
<path d="M99.8039 117.395C99.8805 117.78 99.2678 117.933 99.1912 117.549C99.038 116.934 98.8848 116.242 98.7316 115.627C98.9614 115.781 99.1912 116.011 99.4976 116.165C99.6507 116.55 99.7273 117.011 99.8039 117.395Z" fill="black"/>
<path d="M87.4722 95.5612C86.9361 94.9462 86.3999 94.3311 85.7871 93.793C86.3999 94.3311 86.9361 94.7924 87.5488 95.3306C87.5488 95.4075 87.4722 95.4843 87.4722 95.5612Z" fill="black"/>
<path d="M85.25 94.1C85.0968 94.0232 85.0202 93.8694 84.867 93.7925C82.7989 92.1011 80.5777 90.6404 78.1266 89.4103C78.05 89.3335 77.9734 89.2566 77.9734 89.1797C78.8926 89.7179 79.8883 90.256 80.8074 90.7942C82.416 91.7936 83.8713 92.8699 85.25 94.1Z" fill="black"/>
<path d="M88.008 96.6372C88.008 96.5604 88.008 96.4835 88.008 96.4066C88.008 96.3297 88.008 96.176 88.008 96.0991C88.008 96.0222 88.008 96.0222 88.008 95.9453C91.991 99.8662 95.208 104.556 97.3527 109.707C98.1186 111.552 98.7314 113.397 99.2676 115.319C99.0378 115.165 98.7314 114.935 98.5016 114.781C96.6633 107.862 92.9867 101.634 88.008 96.6372Z" fill="black"/>
<path d="M78.5095 88.8721C81.1138 90.2559 83.5648 91.8704 85.7861 93.7924C86.3989 94.3306 86.935 94.9456 87.4712 95.5607C87.4712 95.4838 87.4712 95.4069 87.5478 95.33C87.701 95.4838 87.9308 95.6375 88.084 95.8682C88.084 95.9451 88.084 95.9451 88.084 96.0219C88.084 96.0988 88.084 96.2526 88.084 96.3295C88.084 96.4063 88.084 96.4832 88.084 96.5601C87.2414 95.7144 86.3223 94.8687 85.3265 94.0999C83.9478 92.8698 82.4925 91.7935 80.884 90.7941C79.9648 90.2559 79.0457 89.7177 78.0499 89.1796C78.0499 88.9489 78.2797 88.7183 78.5095 88.8721Z" fill="black"/>
<path d="M99.3444 115.242C99.421 115.55 99.4976 115.857 99.5742 116.088C99.3444 115.934 99.1146 115.78 98.8083 115.55C98.7317 115.242 98.6551 114.934 98.5785 114.627C98.8083 114.934 99.038 115.088 99.3444 115.242Z" fill="black"/>
</svg>
