<svg width="281" height="84" viewBox="0 0 281 84" fill="none" xmlns="http://www.w3.org/2000/svg">
<path d="M49.8655 33.558C50.7682 33.558 51.1293 33.1585 51.1293 32.3595V1.92487C51.1293 1.08955 50.8043 0.726366 49.8655 0.726366C48.9267 0.726366 48.6017 1.08955 48.6017 1.92487V32.3595C48.6017 33.1585 48.9267 33.558 49.8655 33.558ZM38.8888 32.9406C42.4274 32.9406 44.7021 30.7615 44.7021 27.2387V6.71887C44.7021 3.15968 42.4274 0.980592 38.8888 0.980592C35.3503 0.980592 33.0755 3.15968 33.0755 6.71887V27.2387C33.0755 30.7615 35.3503 32.9406 38.8888 32.9406ZM38.8888 30.6526C36.7946 30.6526 35.5669 29.4178 35.5669 27.0571V6.86414C35.5669 4.50346 36.7946 3.26864 38.8888 3.26864C40.9831 3.26864 42.2468 4.50346 42.2468 6.86414V27.0571C42.2468 29.4178 40.9831 30.6526 38.8888 30.6526Z" fill="white"/>
<path d="M71.3805 9.73328V16.9969C71.3805 17.8322 71.7055 18.2317 72.6442 18.2317C73.5469 18.2317 73.908 17.8322 73.908 16.9969V1.92487C73.908 1.08955 73.583 0.726366 72.6442 0.726366C71.7055 0.726366 71.3805 1.08955 71.3805 1.92487V7.3726H68.3475C67.6614 7.3726 67.3364 7.69946 67.3364 8.5711C67.3364 9.44274 67.6614 9.73328 68.3475 9.73328H71.3805ZM68.1308 15.6532C68.1308 14.8178 67.8058 14.5273 67.1559 14.5273H57.9124V10.0965H64.9172C65.7477 10.0965 66.1088 9.73328 66.1088 8.82533V2.65123C66.1088 1.77959 65.7116 1.41641 64.845 1.41641H56.5042C55.8543 1.41641 55.4932 1.74328 55.4932 2.5786C55.4932 3.3776 55.8543 3.66814 56.5042 3.66814H63.6896V7.91737H56.7208C55.8904 7.91737 55.4932 8.28056 55.4932 9.15219V15.5079C55.4932 16.4158 55.8904 16.779 56.7208 16.779H67.1559C67.8058 16.779 68.1308 16.4522 68.1308 15.6532ZM66.9032 20.9193V19.4302C66.9032 18.5949 66.5782 18.2681 65.6394 18.2681C64.7367 18.2681 64.3756 18.5949 64.3756 19.4302V20.9193H57.8402C57.1902 20.9193 56.8653 21.2098 56.8653 22.0452C56.8653 22.8805 57.1902 23.171 57.8402 23.171H73.4386C74.0885 23.171 74.4496 22.8805 74.4496 22.0452C74.4496 21.2098 74.0885 20.9193 73.4386 20.9193H66.9032ZM62.0648 24.6601C59.1762 24.6601 57.4791 26.4033 57.4791 29.1635C57.4791 31.9237 59.1762 33.6307 62.0648 33.6307H69.214C72.1026 33.6307 73.8358 31.9237 73.8358 29.1635C73.8358 26.4033 72.1026 24.6601 69.214 24.6601H62.0648ZM62.1731 31.5242C60.7288 31.5242 59.8261 30.5799 59.8261 29.1635C59.8261 27.7108 60.7288 26.8028 62.1731 26.8028H69.1057C70.55 26.8028 71.4527 27.7108 71.4527 29.1635C71.4527 30.5799 70.55 31.5242 69.1057 31.5242H62.1731Z" fill="white"/>
<path d="M97.12 0.726366C96.1813 0.726366 95.8924 1.08955 95.8924 1.92487V32.3595C95.8924 33.1585 96.2174 33.558 97.12 33.558C98.0227 33.558 98.3477 33.1585 98.3477 32.3595V1.92487C98.3477 1.08955 98.0588 0.726366 97.12 0.726366ZM91.8122 0.907957C90.9096 0.907957 90.6207 1.27114 90.6207 2.10646V14.4183H87.4432C86.7572 14.4183 86.4322 14.7089 86.4322 15.6168C86.4322 16.4885 86.7572 16.779 87.4432 16.779H90.6207V32.1779C90.6207 33.0133 90.9457 33.3764 91.8122 33.3764C92.7149 33.3764 93.0399 33.0133 93.0399 32.1779V2.10646C93.0399 1.27114 92.7149 0.907957 91.8122 0.907957ZM78.3442 1.38009C77.6942 1.38009 77.3331 1.67064 77.3331 2.54228C77.3331 3.45023 77.6942 3.74078 78.3442 3.74078H84.5185L79.5718 31.5242C79.4274 32.2869 79.7523 32.7227 80.5828 32.868C81.3772 32.9769 81.8105 32.7227 81.9549 31.9964L87.0822 3.41391C87.3349 2.07014 86.7572 1.38009 85.3851 1.38009H78.3442Z" fill="white"/>
<path d="M125.77 8.1716V1.92487C125.77 1.08955 125.445 0.726366 124.506 0.726366C123.567 0.726366 123.242 1.08955 123.242 1.92487V17.8322C123.242 18.6676 123.567 19.0307 124.506 19.0307C125.409 19.0307 125.77 18.6676 125.77 17.8322V10.5323H127.719C128.369 10.5323 128.73 10.2417 128.73 9.3701C128.73 8.49846 128.369 8.1716 127.719 8.1716H125.77ZM119.848 16.1253C119.848 15.2537 119.523 14.9631 118.873 14.9631H110.171V3.74078H117.826C118.476 3.74078 118.801 3.45023 118.801 2.5786C118.801 1.70696 118.476 1.41641 117.826 1.41641H108.907C108.077 1.41641 107.68 1.77959 107.68 2.68755V16.0527C107.68 16.9243 108.077 17.2875 108.907 17.2875H118.873C119.523 17.2875 119.848 16.9606 119.848 16.1253ZM116.021 20.3019C111.579 20.3019 108.98 23.0258 108.98 27.0571C108.98 31.0521 111.579 33.7759 116.021 33.7759H119.09C123.531 33.7759 126.131 31.0521 126.131 27.0571C126.131 23.0258 123.531 20.3019 119.09 20.3019H116.021ZM116.057 31.4879C113.132 31.4879 111.435 29.7083 111.435 27.0571C111.435 24.3695 113.132 22.5899 116.057 22.5899H119.054C121.978 22.5899 123.675 24.3695 123.675 27.0571C123.675 29.7083 121.978 31.4879 119.054 31.4879H116.057Z" fill="white"/>
<path d="M143.521 3.95869C143.521 3.12337 143.196 2.83282 142.51 2.83282H138.033V1.1985C138.033 0.326864 137.672 0 136.769 0C135.866 0 135.505 0.326864 135.505 1.1985V2.83282H130.811C130.161 2.83282 129.836 3.12337 129.836 3.95869C129.836 4.83032 130.161 5.12087 130.811 5.12087H142.51C143.196 5.12087 143.521 4.83032 143.521 3.95869ZM148.901 8.68005V1.92487C148.901 1.08955 148.576 0.726366 147.637 0.726366C146.698 0.726366 146.373 1.08955 146.373 1.92487V17.5417C146.373 18.3407 146.698 18.7402 147.637 18.7402C148.54 18.7402 148.901 18.3407 148.901 17.5417V11.0407H150.851C151.501 11.0407 151.862 10.7502 151.862 9.87856C151.862 9.00692 151.501 8.68005 150.851 8.68005H148.901ZM142.582 11.7671C142.582 8.75269 140.452 6.60992 136.769 6.60992C133.086 6.60992 130.956 8.75269 130.956 11.7671V13.1835C130.956 16.1979 133.086 18.3407 136.769 18.3407C140.452 18.3407 142.582 16.1979 142.582 13.1835V11.7671ZM133.375 11.8034C133.375 10.1328 134.494 8.78901 136.769 8.78901C139.044 8.78901 140.163 10.1328 140.163 11.8034V13.1109C140.163 14.8178 139.044 16.1253 136.769 16.1253C134.494 16.1253 133.375 14.8178 133.375 13.1109V11.8034ZM134.891 31.3063V28.1103H147.673C148.504 28.1103 148.901 27.7471 148.901 26.8755V21.9362C148.901 21.0646 148.504 20.7014 147.637 20.7014H133.483C132.833 20.7014 132.472 21.0282 132.472 21.8636C132.472 22.6626 132.833 22.9531 133.483 22.9531H146.482V25.9675H133.7C132.869 25.9675 132.472 26.3307 132.472 27.2387V32.2869C132.472 33.1949 132.869 33.558 133.7 33.558H149.082C149.731 33.558 150.056 33.2312 150.056 32.3959C150.056 31.5968 149.731 31.3063 149.082 31.3063H134.891Z" fill="white"/>
<path d="M167.647 11.4402L173.786 17.3238C174.435 17.9412 174.977 17.9775 175.627 17.3238C176.241 16.6337 176.205 16.1253 175.555 15.5442L168.875 9.15219V2.07014C168.875 1.23482 168.55 0.871639 167.611 0.871639C166.672 0.871639 166.347 1.23482 166.347 2.07014V9.15219L159.704 15.5442C159.054 16.1253 158.981 16.6337 159.631 17.3238C160.281 17.9775 160.787 17.9412 161.473 17.3238L167.647 11.4402ZM158.981 21.3914C158.332 21.3914 158.007 21.682 158.007 22.5536C158.007 23.4616 158.332 23.7521 158.981 23.7521H166.347V32.4322C166.347 33.2675 166.708 33.667 167.611 33.667C168.55 33.667 168.875 33.2675 168.875 32.4322V23.7521H176.277C176.927 23.7521 177.252 23.4616 177.252 22.5536C177.252 21.682 176.927 21.3914 176.277 21.3914H158.981Z" fill="white"/>
<path d="M201.177 10.3144V16.6701C201.177 17.4691 201.502 17.8686 202.441 17.8686C203.343 17.8686 203.705 17.4691 203.705 16.6701V1.92487C203.705 1.08955 203.38 0.726366 202.441 0.726366C201.502 0.726366 201.177 1.08955 201.177 1.92487V7.95369H197.133V6.71887C197.133 3.15968 194.894 0.980592 191.139 0.980592C187.42 0.980592 185.145 3.15968 185.145 6.71887V11.5855C185.145 15.1447 187.42 17.2875 191.139 17.2875C194.894 17.2875 197.133 15.1447 197.133 11.5855V10.3144H201.177ZM194.678 11.4039C194.678 13.7646 193.45 14.9994 191.139 14.9994C188.864 14.9994 187.637 13.7646 187.637 11.4039V6.86414C187.637 4.50346 188.864 3.26864 191.139 3.26864C193.45 3.26864 194.678 4.50346 194.678 6.86414V11.4039ZM193.992 19.285C193.125 19.285 192.836 19.6482 192.836 20.4835V24.5874H189.081V20.5198C189.081 19.6482 188.792 19.285 187.889 19.285C187.059 19.285 186.77 19.6482 186.77 20.5198V32.2869C186.77 33.1949 187.131 33.558 187.962 33.558H193.883C194.714 33.558 195.111 33.1949 195.111 32.2869V20.4835C195.111 19.6482 194.822 19.285 193.992 19.285ZM201.935 26.0038V20.6651C201.935 19.7934 201.61 19.4302 200.672 19.4302C199.733 19.4302 199.408 19.7934 199.408 20.6651V26.0038L195.869 31.6695C195.472 32.3595 195.616 32.9043 196.339 33.3038C197.061 33.7396 197.566 33.6307 198 32.9043L200.672 28.5461L203.343 32.9043C203.741 33.6307 204.282 33.7396 205.004 33.3038C205.727 32.9043 205.871 32.3595 205.438 31.6695L201.935 26.0038ZM189.081 26.7302H192.836V31.3426H189.081V26.7302Z" fill="white"/>
<path d="M226.158 14.4547V1.92487C226.158 1.08955 225.833 0.726366 224.895 0.726366C223.956 0.726366 223.631 1.08955 223.631 1.92487V32.3595C223.631 33.1585 223.956 33.558 224.895 33.558C225.797 33.558 226.158 33.1585 226.158 32.3595V16.8153H228.108C228.758 16.8153 229.119 16.5248 229.119 15.6532C229.119 14.7815 228.758 14.4547 228.108 14.4547H226.158ZM210.921 30.1804V3.74078H218.576C219.226 3.74078 219.551 3.45023 219.551 2.5786C219.551 1.70696 219.226 1.41641 218.576 1.41641H209.657C208.827 1.41641 208.43 1.77959 208.43 2.68755V31.27C208.43 32.1416 208.827 32.5048 209.657 32.5048H219.623C220.273 32.5048 220.598 32.1779 220.598 31.3426C220.598 30.471 220.273 30.1804 219.623 30.1804H210.921Z" fill="white"/>
<path d="M232.139 33.5944C233.114 33.5944 233.402 33.1949 233.402 32.3232V29.1635C233.402 28.2556 233.114 27.8924 232.139 27.8924C231.2 27.8924 230.911 28.2556 230.911 29.1635V32.3232C230.911 33.1949 231.2 33.5944 232.139 33.5944Z" fill="white"/>
<path d="M238.027 33.5944C239.002 33.5944 239.291 33.1949 239.291 32.3232V29.1635C239.291 28.2556 239.002 27.8924 238.027 27.8924C237.088 27.8924 236.8 28.2556 236.8 29.1635V32.3232C236.8 33.1949 237.088 33.5944 238.027 33.5944Z" fill="white"/>
<path d="M245.035 24.4422C246.046 24.4422 246.335 24.079 246.335 23.2073V3.08705C246.335 2.25173 246.046 1.85223 245.035 1.85223C244.06 1.85223 243.771 2.25173 243.771 3.08705V23.2073C243.771 24.079 244.06 24.4422 245.035 24.4422ZM245.035 32.5048C246.046 32.5048 246.335 32.1053 246.335 31.2337V29.5267C246.335 28.6188 246.046 28.2556 245.035 28.2556C244.06 28.2556 243.771 28.6188 243.771 29.5267V31.2337C243.771 32.1053 244.06 32.5048 245.035 32.5048Z" fill="white"/>
<path d="M9.94148 58.5409L16.2603 63.4076C16.9102 63.916 17.4518 63.8071 17.9573 63.117C18.499 62.3907 18.3545 61.8822 17.6685 61.3737L11.1691 56.3618V52.4395C11.1691 51.6042 10.8442 51.241 9.90537 51.241C8.96658 51.241 8.64161 51.6042 8.64161 52.4395V56.3618L2.17837 61.3737C1.49233 61.8822 1.3479 62.3907 1.88951 63.117C2.39502 63.8071 2.93663 63.916 3.58656 63.4076L9.94148 58.5409ZM1.27568 66.2041C0.625749 66.2041 0.300781 66.4946 0.300781 67.3663C0.300781 68.2379 0.625749 68.5284 1.27568 68.5284H18.5712C19.2211 68.5284 19.5461 68.2379 19.5461 67.3663C19.5461 66.4946 19.2211 66.2041 18.5712 66.2041H1.27568ZM16.4408 71.4702C15.5381 71.4702 15.2132 71.8334 15.2132 72.705V75.3563H4.63368V72.705C4.63368 71.8334 4.30871 71.4702 3.40603 71.4702C2.46723 71.4702 2.17837 71.8334 2.17837 72.705V82.7289C2.17837 83.6368 2.53945 84 3.36992 84H16.4769C17.3074 84 17.6685 83.6368 17.6685 82.7289V72.705C17.6685 71.8334 17.3435 71.4702 16.4408 71.4702ZM4.63368 77.5717H15.2132V81.7483H4.63368V77.5717Z" fill="white"/>
<path d="M39.7682 62.0275V52.3668C39.7682 51.5315 39.4433 51.1683 38.5045 51.1683C37.5657 51.1683 37.2407 51.5315 37.2407 52.3668V75.901C37.2407 76.7364 37.5657 77.1359 38.5045 77.1359C39.4072 77.1359 39.7682 76.7364 39.7682 75.901V64.3882H41.718C42.368 64.3882 42.7291 64.0613 42.7291 63.1897C42.7291 62.318 42.368 62.0275 41.718 62.0275H39.7682ZM31.6079 54.1464L31.1024 64.824C31.0663 65.623 31.3913 66.0225 32.294 66.0588C33.1967 66.0951 33.5578 65.7683 33.5939 64.9329L34.1716 53.5653C34.2077 52.3305 33.7383 51.8221 32.4745 51.8221H23.6282C22.9783 51.8221 22.6172 52.1489 22.6172 52.9842C22.6172 53.8559 22.9783 54.1464 23.6282 54.1464H31.6079ZM35.7964 70.3443C35.7964 69.4727 35.4715 69.1822 34.7854 69.1822H28.0333V61.0106C28.0333 60.2116 27.7083 59.8121 26.7695 59.8121C25.8669 59.8121 25.5058 60.2116 25.5058 61.0106V69.1822H22.2561C21.6062 69.1822 21.2812 69.4727 21.2812 70.3443C21.2812 71.216 21.6062 71.5065 22.2561 71.5065H34.7854C35.4715 71.5065 35.7964 71.216 35.7964 70.3443ZM26.6612 81.6756V75.8284C26.6612 74.9931 26.3001 74.6299 25.3975 74.6299C24.4948 74.6299 24.1698 74.9931 24.1698 75.8284V82.7289C24.1698 83.6368 24.5309 84 25.3975 84H39.2627C39.9488 84 40.2737 83.6731 40.2737 82.8378C40.2737 82.0025 39.9488 81.6756 39.2627 81.6756H26.6612Z" fill="white"/>
<path d="M54.5396 62.8628C58.8364 62.8628 61.2917 60.5748 61.2917 57.0519C61.2917 53.5653 58.8364 51.241 54.5396 51.241H52.1204C47.8236 51.241 45.3683 53.5653 45.3683 57.0519C45.3683 60.5748 47.8236 62.8628 52.1204 62.8628H54.5396ZM52.0482 60.6111C49.304 60.6111 47.8236 59.1583 47.8236 57.0519C47.8236 54.9817 49.304 53.529 52.0482 53.529H54.6118C57.356 53.529 58.8364 54.9817 58.8364 57.0519C58.8364 59.1583 57.356 60.6111 54.6118 60.6111H52.0482ZM61.9777 67.9837C62.6277 67.9837 62.9526 67.6931 62.9526 66.8215C62.9526 65.9498 62.6277 65.6593 61.9777 65.6593H44.6822C44.0323 65.6593 43.7073 65.9498 43.7073 66.8215C43.7073 67.6931 44.0323 67.9837 44.6822 67.9837H61.9777ZM61.2917 84C61.9777 84 62.3027 83.6731 62.3027 82.8741C62.3027 82.1115 61.9777 81.7846 61.2917 81.7846H48.0763V78.516H59.7391C60.6056 78.516 60.9667 78.1528 60.9667 77.2448V72.3055C60.9667 71.3613 60.6418 71.0344 59.6669 71.0344H46.5959C45.946 71.0344 45.621 71.3613 45.621 72.1603C45.621 72.9229 45.946 73.2498 46.5959 73.2498H58.5475V76.4095H46.8487C46.0182 76.4095 45.6571 76.8453 45.6571 77.6806V82.7289C45.6571 83.6731 45.9821 84 46.8487 84H61.2917Z" fill="white"/>
<path d="M89.0803 59.7031V52.3668C89.0803 51.5315 88.7554 51.1683 87.8166 51.1683C86.8778 51.1683 86.5528 51.5315 86.5528 52.3668V74.2667C86.5528 75.102 86.8778 75.4652 87.8166 75.4652C88.7193 75.4652 89.0803 75.102 89.0803 74.2667V62.0638H91.0302C91.6801 62.0638 92.0412 61.7732 92.0412 60.9016C92.0412 60.03 91.6801 59.7031 91.0302 59.7031H89.0803ZM82.6893 53.1295C82.6893 52.2216 82.3282 51.8584 81.4978 51.8584H72.2182C71.3877 51.8584 70.9905 52.2216 70.9905 53.1295V67.911C70.9905 68.819 71.3877 69.1822 72.2182 69.1822H81.4978C82.3282 69.1822 82.6893 68.819 82.6893 67.911V53.1295ZM73.4458 66.8941V54.1464H80.2701V66.8941H73.4458ZM75.2512 81.6756V73.8309C75.2512 72.9956 74.8901 72.6324 73.9874 72.6324C73.0847 72.6324 72.7598 72.9956 72.7598 73.8309V82.7289C72.7598 83.6368 73.1208 84 73.9874 84H88.5748C89.2609 84 89.5859 83.6731 89.5859 82.8378C89.5859 82.0025 89.2609 81.6756 88.5748 81.6756H75.2512Z" fill="white"/>
<path d="M109.504 62.7175C110.19 62.7175 110.515 62.3907 110.515 61.5553C110.515 60.72 110.19 60.4658 109.504 60.4658H97.4437V53.8922H109.143C109.829 53.8922 110.154 53.6017 110.154 52.7663C110.154 51.8947 109.829 51.6042 109.143 51.6042H96.2161C95.3856 51.6042 94.9884 51.9673 94.9884 52.8753V61.4464C94.9884 62.3543 95.3856 62.7175 96.2161 62.7175H109.504ZM111.273 67.8747C111.923 67.8747 112.248 67.5842 112.248 66.7125C112.248 65.8409 111.923 65.5503 111.273 65.5503H93.9774C93.3275 65.5503 93.0025 65.8409 93.0025 66.7125C93.0025 67.5842 93.3275 67.8747 93.9774 67.8747H111.273ZM110.623 83.9637C111.273 83.9637 111.598 83.6731 111.598 82.8378C111.598 82.0388 111.273 81.7483 110.623 81.7483H97.2993V78.3707H109.179C110.009 78.3707 110.37 78.0075 110.37 77.1359V72.0876C110.37 71.1797 109.973 70.8528 109.106 70.8528H95.855C95.2051 70.8528 94.8801 71.1434 94.8801 72.015C94.8801 72.7777 95.2051 73.0682 95.855 73.0682H107.951V76.2642H96.0717C95.2412 76.2642 94.8801 76.6274 94.8801 77.499V82.7289C94.8801 83.6005 95.2412 83.9637 96.0717 83.9637H110.623Z" fill="white"/>
<path d="M132.253 51.1683C131.315 51.1683 130.99 51.5315 130.99 52.3668V64.9329H126.801V57.1608C126.801 53.6017 124.562 51.4226 121.096 51.4226C117.63 51.4226 115.391 53.6017 115.391 57.1608V77.6806C115.391 81.2035 117.63 83.3826 121.096 83.3826C124.562 83.3826 126.801 81.2035 126.801 77.6806V67.2936H130.99V82.8015C130.99 83.6005 131.315 84 132.253 84C133.156 84 133.517 83.6005 133.517 82.8015V52.3668C133.517 51.5315 133.192 51.1683 132.253 51.1683ZM124.346 77.499C124.346 79.8597 123.154 81.0945 121.096 81.0945C119.074 81.0945 117.883 79.8597 117.883 77.499V57.3061C117.883 54.9454 119.074 53.7106 121.096 53.7106C123.154 53.7106 124.346 54.9454 124.346 57.3061V77.499Z" fill="white"/>
<path d="M160.215 51.1683C159.277 51.1683 158.952 51.5315 158.952 52.3668V57.6693H154.872C154.222 57.6693 153.897 57.9962 153.897 58.8678C153.897 59.7394 154.222 60.03 154.872 60.03H158.952V68.6374C158.952 69.4727 159.277 69.8359 160.215 69.8359C161.118 69.8359 161.479 69.4727 161.479 68.6374V52.3668C161.479 51.5315 161.154 51.1683 160.215 51.1683ZM152.85 67.8747C153.391 68.5648 153.933 68.71 154.583 68.2016C155.341 67.6568 155.377 67.0757 154.799 66.3493L149.961 60.3932V52.9479C149.961 52.0763 149.636 51.7131 148.697 51.7131C147.758 51.7131 147.433 52.0763 147.433 52.9479V60.4295L142.631 66.3493C142.053 67.0757 142.09 67.6205 142.812 68.2016C143.462 68.71 144.003 68.5648 144.545 67.8747L148.697 62.7538L152.85 67.8747ZM146.278 71.5429C145.448 71.5429 145.086 71.906 145.086 72.7777V82.7289C145.086 83.6368 145.448 84 146.278 84H160.252C161.082 84 161.479 83.6368 161.479 82.7289V72.7777C161.479 71.906 161.082 71.5429 160.252 71.5429H146.278ZM147.506 81.712V73.7946H159.024V81.712H147.506Z" fill="white"/>
<path d="M175.556 62.8628C179.853 62.8628 182.308 60.5748 182.308 57.0519C182.308 53.5653 179.853 51.241 175.556 51.241H173.137C168.84 51.241 166.385 53.5653 166.385 57.0519C166.385 60.5748 168.84 62.8628 173.137 62.8628H175.556ZM173.065 60.6111C170.32 60.6111 168.84 59.1583 168.84 57.0519C168.84 54.9817 170.32 53.529 173.065 53.529H175.628C178.372 53.529 179.853 54.9817 179.853 57.0519C179.853 59.1583 178.372 60.6111 175.628 60.6111H173.065ZM182.994 67.9837C183.644 67.9837 183.969 67.6931 183.969 66.8215C183.969 65.9498 183.644 65.6593 182.994 65.6593H165.699C165.049 65.6593 164.724 65.9498 164.724 66.8215C164.724 67.6931 165.049 67.9837 165.699 67.9837H182.994ZM182.308 84C182.994 84 183.319 83.6731 183.319 82.8741C183.319 82.1115 182.994 81.7846 182.308 81.7846H169.093V78.516H180.756C181.622 78.516 181.983 78.1528 181.983 77.2448V72.3055C181.983 71.3613 181.658 71.0344 180.683 71.0344H167.612C166.963 71.0344 166.638 71.3613 166.638 72.1603C166.638 72.9229 166.963 73.2498 167.612 73.2498H179.564V76.4095H167.865C167.035 76.4095 166.674 76.8453 166.674 77.6806V82.7289C166.674 83.6731 166.999 84 167.865 84H182.308Z" fill="white"/>
<path d="M210.097 58.4683V52.3668C210.097 51.5315 209.772 51.1683 208.833 51.1683C207.894 51.1683 207.569 51.5315 207.569 52.3668V67.4752C207.569 68.2742 207.894 68.6737 208.833 68.6737C209.736 68.6737 210.097 68.2742 210.097 67.4752V60.8653H212.047C212.697 60.8653 213.058 60.5384 213.058 59.6668C213.058 58.7952 212.697 58.4683 212.047 58.4683H210.097ZM204.175 66.3493C204.175 65.514 203.85 65.1872 203.2 65.1872H194.535V60.6837H201.937C202.586 60.6837 202.911 60.3932 202.911 59.5578C202.911 58.7225 202.586 58.432 201.937 58.432H194.535V54.1827H202.37C203.056 54.1827 203.381 53.8559 203.381 53.0206C203.381 52.1852 203.056 51.8584 202.37 51.8584H193.271C192.44 51.8584 192.043 52.2579 192.043 53.1295V66.2767C192.043 67.1483 192.44 67.5115 193.271 67.5115H203.2C203.85 67.5115 204.175 67.1847 204.175 66.3493ZM196.087 81.7483V78.1528H208.869C209.7 78.1528 210.097 77.7896 210.097 76.8816V71.5792C210.097 70.7075 209.7 70.3443 208.833 70.3443H194.679C193.993 70.3443 193.668 70.6712 193.668 71.5065C193.668 72.3055 193.993 72.5961 194.679 72.5961H207.678V75.9737H194.896C194.065 75.9737 193.668 76.3369 193.668 77.2085V82.7289C193.668 83.6368 194.065 84 194.896 84H210.277C210.927 84 211.252 83.6731 211.252 82.8378C211.252 82.0388 210.927 81.7483 210.277 81.7483H196.087Z" fill="white"/>
<path d="M216.005 61.1558C215.211 61.4827 214.994 62.0275 215.391 62.7902C215.716 63.5528 216.222 63.6981 217.052 63.2986L223.66 60.2842L230.231 63.2986C231.062 63.6981 231.567 63.5528 231.892 62.7902C232.289 62.0275 232.073 61.4827 231.278 61.1558L224.887 58.2141V55.7081H230.99C231.639 55.7081 232.001 55.4176 232.001 54.5459C232.001 53.6743 231.639 53.3837 230.99 53.3837H224.887V51.2773C224.887 50.4057 224.562 50.0788 223.624 50.0788C222.721 50.0788 222.36 50.4057 222.36 51.2773V53.3837H216.294C215.644 53.3837 215.247 53.6743 215.247 54.5459C215.247 55.4176 215.644 55.7081 216.294 55.7081H222.36V58.2141L216.005 61.1558ZM232.289 67.7658C232.939 67.7658 233.264 67.4752 233.264 66.6036C233.264 65.7319 232.939 65.4414 232.289 65.4414H214.994C214.344 65.4414 214.019 65.7319 214.019 66.6036C214.019 67.4752 214.344 67.7658 214.994 67.7658H222.36V70.9981H216.872C216.222 70.9981 215.897 71.2886 215.897 72.1603C215.897 72.9229 216.222 73.2135 216.872 73.2135H228.968V76.3369H217.088C216.258 76.3369 215.897 76.7 215.897 77.5717V82.7289C215.897 83.6005 216.258 83.9637 217.088 83.9637H231.639C232.289 83.9637 232.614 83.6731 232.614 82.8378C232.614 82.0388 232.289 81.7483 231.639 81.7483H218.316V78.4433H230.195C231.026 78.4433 231.387 78.0801 231.387 77.2085V72.2329C231.387 71.3249 230.99 70.9981 230.123 70.9981H224.887V67.7658H232.289Z" fill="white"/>
<path d="M243.449 53.7469V51.6405C243.449 50.7688 243.124 50.442 242.221 50.442C241.318 50.442 240.957 50.7688 240.957 51.6405V53.7469H236.408C235.722 53.7469 235.397 54.0375 235.397 54.9091C235.397 55.7807 235.722 56.0713 236.408 56.0713H247.962C248.612 56.0713 248.973 55.7807 248.973 54.9091C248.973 54.0375 248.612 53.7469 247.962 53.7469H243.449ZM254.209 64.8966V52.3668C254.209 51.5315 253.884 51.1683 252.945 51.1683C252.006 51.1683 251.681 51.5315 251.681 52.3668V82.8015C251.681 83.6005 252.006 84 252.945 84C253.848 84 254.209 83.6005 254.209 82.8015V67.2573H256.158C256.808 67.2573 257.169 66.9668 257.169 66.0951C257.169 65.2235 256.808 64.8966 256.158 64.8966H254.209ZM242.221 58.1051C238.682 58.1051 236.588 60.2479 236.588 63.8071V77.608C236.588 81.1672 238.682 83.31 242.221 83.31C245.759 83.31 247.854 81.1672 247.854 77.608V63.8071C247.854 60.2479 245.759 58.1051 242.221 58.1051ZM245.435 77.499C245.435 79.7871 244.279 81.0582 242.221 81.0582C240.163 81.0582 239.007 79.7871 239.007 77.499V63.916C239.007 61.5917 240.163 60.3205 242.221 60.3205C244.279 60.3205 245.435 61.5917 245.435 63.916V77.499Z" fill="white"/>
<path d="M277.34 64.8966V52.3668C277.34 51.5315 277.015 51.1683 276.076 51.1683C275.137 51.1683 274.812 51.5315 274.812 52.3668V82.8015C274.812 83.6005 275.137 84 276.076 84C276.979 84 277.34 83.6005 277.34 82.8015V67.2573H279.29C279.94 67.2573 280.301 66.9668 280.301 66.0951C280.301 65.2235 279.94 64.8966 279.29 64.8966H277.34ZM266.544 54.1464H270.118C270.768 54.1464 271.166 53.8559 271.166 53.0206C271.166 52.1489 270.768 51.8584 270.118 51.8584H260.478C259.828 51.8584 259.431 52.1489 259.431 53.0206C259.431 53.8559 259.828 54.1464 260.478 54.1464H264.016V71.5792L258.997 81.0945C258.672 81.7846 258.672 82.3657 259.503 82.8378C260.333 83.2736 260.803 82.9468 261.128 82.293L265.28 74.412L269.469 82.3294C269.793 82.9831 270.299 83.31 271.129 82.8741C271.96 82.402 271.96 81.8209 271.599 81.1309L266.544 71.5065V54.1464Z" fill="white"/>
</svg>
