<svg width="257" height="279" viewBox="0 0 257 279" fill="none" xmlns="http://www.w3.org/2000/svg">
<g clip-path="url(#clip0)">
<path d="M65.0687 110.878C61.8767 107.275 63.4318 105.965 63.4318 105.965L42.0697 124.718L30.6111 134.79C30.0382 135.282 29.6289 135.855 29.3834 136.428C28.8923 137.493 28.8104 138.721 29.1378 139.867C29.3015 140.523 29.6289 141.178 30.12 141.751L30.6111 142.324C31.184 142.979 31.8388 143.389 32.5754 143.716C34.2124 144.289 36.0948 144.044 37.4862 142.815L70.3888 113.826C70.2251 113.908 68.5063 114.727 65.0687 110.878Z" fill="#FF4569"/>
<path d="M72.2708 106.947C71.8616 106.537 71.3705 106.128 70.8794 105.555C70.4701 105.145 70.1428 104.736 69.8972 104.326L63.3494 105.964C63.3494 105.964 61.7943 107.274 64.9864 110.877C68.5058 114.808 70.1428 113.907 70.4701 113.744L72.2708 106.947Z" fill="#FF4569"/>
<path d="M72.2708 106.947C71.8616 106.537 71.3705 106.128 70.8794 105.555C70.4701 105.145 70.1428 104.736 69.8972 104.326L63.3494 105.964C63.3494 105.964 61.7943 107.274 64.9864 110.877C68.5058 114.808 70.1428 113.907 70.4701 113.744L72.2708 106.947Z" fill="#333333"/>
<path d="M69.8984 104.327C70.144 104.736 70.4714 105.064 70.8806 105.555C71.3717 106.128 71.8628 106.538 72.272 106.947L73.0905 103.59L69.8984 104.327Z" fill="#FF4569"/>
<path opacity="0.2" d="M69.8984 104.327C70.144 104.736 70.4714 105.064 70.8806 105.555C71.3717 106.128 71.8628 106.538 72.272 106.947L73.0905 103.59L69.8984 104.327Z" fill="#6646EE"/>
<path d="M69.8984 104.327C70.144 104.736 70.4714 105.064 70.8806 105.555C71.3717 106.128 71.8628 106.538 72.272 106.947L73.0905 103.59L69.8984 104.327Z" fill="black"/>
<path d="M52.5459 139.295L53.7736 139.54L69.7338 128.076L54.0191 111.943L40.1051 120.788L39.614 123.49L38.3045 122.098L24.3905 130.942L22.5898 140.932L23.1628 141.588L22.5898 141.424C23.6539 151.988 30.529 162.06 40.4325 165.909C50.336 169.758 62.8586 166.564 68.8335 157.802L40.6781 147.811L52.5459 139.295Z" fill="#FFC5C4"/>
<path d="M74.9717 149.613C77.9182 149.367 77.3453 146.091 76.6905 144.126C75.6265 141.096 74.5625 138.148 73.3348 135.282C70.9612 129.631 68.0147 124.145 64.0861 119.395C57.1291 110.797 46.8163 104.246 35.4396 104.901C29.4647 105.228 23.6536 107.439 19.2338 111.534C17.7606 111.943 16.3692 112.516 14.9778 113.335C10.4762 115.956 7.2023 120.46 5.9746 125.455C5.8109 126.274 6.38383 126.847 6.95676 126.929C5.15612 129.058 3.76472 131.515 2.94625 134.299C1.55485 139.131 1.96409 144.372 4.25581 148.794C6.46568 153.052 10.2306 156.491 14.6504 158.293C18.6609 159.931 24.3084 160.586 27.5004 157.228C29.3829 159.767 31.5928 161.978 34.13 163.78C41.2507 168.857 50.5813 170.003 58.766 166.81C63.1857 165.09 67.1144 162.224 69.8154 158.293L74.9717 149.613Z" fill="#FFC5C4"/>
<path d="M15.7144 145.353L17.1876 146.991C17.5969 147.482 17.024 148.546 15.9599 149.529L6.71122 157.473C5.6472 158.373 4.4195 158.783 4.01026 158.291L2.53701 156.654C2.12778 156.162 2.70071 155.098 3.76472 154.115L13.0134 146.172C14.1593 145.271 15.3052 144.861 15.7144 145.353Z" fill="black"/>
<path d="M8.4296 161.404C9.32992 162.469 9.24807 164.106 8.18406 165.007L4.2554 168.447C3.19139 169.347 1.55444 169.265 0.654125 168.201C-0.246193 167.136 -0.164346 165.499 0.899667 164.598L4.82833 161.158C5.89234 160.176 7.52928 160.339 8.4296 161.404Z" fill="black"/>
<path d="M44.0326 129.385L44.5237 129.958C46.3243 132.005 46.0788 135.117 44.1144 136.918L12.5215 164.761C10.4753 166.563 7.36508 166.317 5.56445 164.352L5.07336 163.778C3.27273 161.731 3.51827 158.619 5.4826 156.818L37.0756 128.975C39.1218 127.174 42.232 127.337 44.0326 129.385Z" fill="#FF4569"/>
<path d="M68.9155 157.801C62.8588 166.563 50.4181 169.757 40.5146 165.908C30.611 162.059 23.7359 151.987 22.6719 141.423L39.7779 118.084L53.119 129.139L61.3856 142.733L68.9155 157.801Z" fill="#FFC5C4"/>
<path d="M21.4434 141.342C22.3437 150.268 27.009 158.621 34.2934 163.862C41.4141 168.939 50.7446 170.086 58.9294 166.892C63.3491 165.173 67.2778 162.306 69.9787 158.376C70.879 157.065 68.751 155.837 67.8507 157.147C63.3491 163.535 55.3281 166.647 47.7163 166.237C39.6953 165.746 32.6564 160.832 28.4004 154.199C25.945 150.35 24.3899 145.928 23.8988 141.424C23.7351 139.787 21.2797 139.787 21.4434 141.342Z" fill="#FFA1A1"/>
<path d="M33.3103 112.271C34.7836 112.845 35.4383 110.47 33.9651 109.897C30.5275 108.586 27.0081 108.095 23.5705 108.422C22.0973 109.323 20.624 110.306 19.3145 111.534C23.8979 110.306 28.8087 110.552 33.3103 112.271Z" fill="#FFA1A1"/>
<path d="M120.315 47.9863C113.276 48.969 111.067 53.1454 111.558 56.2572C111.967 59.1234 116.468 60.6793 121.216 60.925C120.643 59.3691 120.07 57.2399 119.906 54.5375C119.742 51.4257 119.988 49.2966 120.315 47.9863Z" fill="white"/>
<path d="M133.82 51.6712C132.02 49.9515 128.582 47.5766 122.771 47.8223C121.871 47.8223 121.134 47.9042 120.397 48.068C120.07 49.3782 119.743 51.5074 119.988 54.6192C120.152 57.3216 120.725 59.4507 121.298 61.0066C122.116 61.0066 123.016 61.0066 123.835 61.0066C127.845 60.761 132.02 57.731 134.066 55.4381C134.884 54.4554 134.802 52.5719 133.82 51.6712Z" fill="black"/>
<path d="M153.218 46.1035C146.179 47.0862 143.969 51.2626 144.46 54.3744C144.869 57.2406 149.371 58.7965 154.118 59.0422C153.545 57.4863 152.972 55.3571 152.808 52.6547C152.563 49.5429 152.89 47.4138 153.218 46.1035Z" fill="white"/>
<path d="M166.723 49.7883C164.922 48.0686 161.484 45.6938 155.673 45.9395C154.773 45.9395 154.036 46.0214 153.3 46.1852C152.972 47.4954 152.645 49.6246 152.89 52.7364C153.054 55.4388 153.627 57.5679 154.2 59.1238C155.018 59.1238 155.919 59.1238 156.737 59.1238C160.748 58.8782 164.922 55.8482 166.968 53.5553C167.705 52.4907 167.623 50.6891 166.723 49.7883Z" fill="black"/>
<path d="M141.514 61.5804L138.977 61.7442C137.995 61.826 137.176 61.089 137.176 60.1063C137.094 59.1237 137.831 58.3048 138.813 58.3048L141.35 58.141C142.333 58.0591 143.151 58.7961 143.151 59.7788C143.151 60.7615 142.496 61.5804 141.514 61.5804Z" fill="black"/>
<path d="M137.177 75.5019C138.977 73.0452 140.86 70.4247 143.561 68.8688C145.852 67.5585 148.963 67.1491 151.091 69.0325C152.318 70.0971 154.037 68.2955 152.809 67.3128C150.027 64.938 146.18 64.8561 142.988 66.4121C139.55 68.0499 137.177 71.2436 135.049 74.2735C134.639 74.8467 134.967 75.6657 135.458 75.9932C136.113 76.2389 136.767 75.9932 137.177 75.5019Z" fill="black"/>
<path d="M137.092 183.106C128.498 171.232 118.431 160.422 107.3 150.923C102.144 146.583 96.5781 142.407 90.1122 140.359C82.0912 137.821 73.4154 138.722 65.3125 140.933C51.5622 144.781 37.6482 151.66 30.0364 163.698C22.6701 175.326 23.5705 180.24 23.6523 191.377C23.7341 206.199 41.9042 234.779 62.1205 247.963C81.6819 260.738 108.773 276.133 132.1 277.525C154.198 278.836 166.721 275.233 190.539 264.996C218.858 252.795 238.747 224.788 249.305 195.881C259.945 166.974 257.981 132.825 240.793 107.276C235.718 99.6599 229.252 92.7811 221.313 88.1953C206.008 79.3511 187.347 79.7606 169.668 80.4157C169.668 80.4157 108.773 73.7007 89.2119 97.7764C79.7176 109.405 79.7176 126.766 83.4007 141.342" fill="white"/>
<path d="M138.156 182.534C128.99 169.922 118.268 158.294 106.154 148.467C100.179 143.636 93.6316 139.377 86.0198 138.149C78.2443 136.839 70.3052 138.149 62.7752 140.442C50.0071 144.291 37.1571 150.842 29.4634 162.225C25.944 167.466 23.1612 173.28 22.5064 179.585C22.179 182.37 22.2609 185.236 22.3427 188.102C22.3427 190.559 22.3427 193.015 22.752 195.472C23.5704 200.467 25.6166 205.299 27.8265 209.885C30.5275 215.453 33.8832 220.694 37.5663 225.69C41.495 231.013 45.8329 236.008 50.6618 240.512C55.409 244.934 60.6472 248.619 66.0491 252.058C78.408 259.92 91.258 267.126 105.008 272.367C111.638 274.906 118.513 277.035 125.552 278.099C132.182 279.082 139.057 279.246 145.768 278.918C158.946 278.181 171.386 274.251 183.5 269.337C190.129 266.635 196.759 263.769 202.816 259.92C208.463 256.317 213.701 252.14 218.448 247.472C228.106 238.055 236.046 226.754 242.266 214.798C248.65 202.515 253.561 189.412 255.689 175.737C257.817 161.815 257.326 147.403 253.725 133.727C250.123 120.051 243.494 106.867 233.59 96.7126C228.597 91.4716 222.623 87.2952 215.993 84.429C209.2 81.5629 201.833 80.1708 194.549 79.5156C187.019 78.8605 179.407 79.0243 171.877 79.27C170.24 79.3519 168.767 79.27 167.13 79.1062C160.828 78.6148 154.526 78.3692 148.142 78.4511C138.729 78.6148 129.235 79.3519 119.905 81.1534C110.819 82.955 101.489 85.9031 94.0408 91.4716C89.9485 94.5015 86.5927 98.3504 84.301 102.936C81.2727 108.914 79.9631 115.629 79.7176 122.262C79.5539 128.814 80.4542 135.447 82.0093 141.834C82.4185 143.39 84.7921 142.735 84.3829 141.179C81.2727 128.814 80.6179 114.483 87.002 103.018C91.5854 94.911 99.6064 89.9976 108.2 86.8858C117.04 83.692 126.37 82.218 135.701 81.481C143.722 80.8259 151.743 80.744 159.764 81.0715C163.611 81.2353 167.458 81.8086 171.305 81.6448C185.71 81.1534 200.769 80.9078 214.356 86.3944C227.533 91.7173 237.273 102.936 243.821 115.302C250.205 127.34 253.643 140.933 254.216 154.609C254.87 168.448 252.661 182.288 247.995 195.308C243.494 207.674 237.437 219.548 229.743 230.194C222.132 240.839 212.801 250.339 201.833 257.463C195.94 261.23 189.638 264.014 183.254 266.717C177.034 269.255 170.65 271.712 164.102 273.432C158.373 274.988 152.48 275.97 146.505 276.38C139.957 276.789 133.164 276.789 126.698 275.806C112.702 273.841 99.4427 268.027 87.0838 261.558C80.8634 258.282 74.7249 254.761 68.8319 250.994C63.5118 247.636 58.2736 244.279 53.6083 240.02C44.3596 231.668 36.4204 221.513 30.6911 210.376C28.3994 205.872 26.3532 201.204 25.2892 196.291C24.7982 194.162 24.7163 192.115 24.7163 189.986C24.7163 187.119 24.5526 184.253 24.7163 181.387C25.0437 175.245 27.4991 169.922 30.6911 164.763C34.2106 159.113 39.2032 154.527 44.7689 151.006C50.4163 147.485 56.5548 144.864 62.9389 142.899C70.2233 140.688 77.9988 139.214 85.6106 140.606C93.1405 141.916 99.4427 146.174 105.172 151.006C110.983 155.837 116.549 161.078 121.705 166.647C126.78 172.052 131.527 177.784 135.865 183.844C136.929 184.99 139.057 183.762 138.156 182.534Z" fill="white"/>
<path d="M79.8011 137.658C83.4842 137.74 87.0036 139.377 90.5231 140.524C94.2062 141.752 97.3164 143.718 100.181 146.256C103.128 148.795 106.074 151.497 109.021 154.036C112.213 156.82 115.323 159.768 118.351 162.798C124.326 168.858 129.892 175.327 134.966 182.206C137.012 184.99 139.631 187.283 141.678 190.067C145.279 195.063 148.143 201.614 145.442 207.674C144.788 209.066 146.916 210.376 147.571 208.902C150.19 203.006 148.635 196.782 145.524 191.378C144.215 189.167 142.66 187.119 140.941 185.154C140.041 184.09 138.977 183.189 138.076 182.206C137.094 181.141 136.276 179.749 135.375 178.603C134.066 176.883 132.674 175.163 131.283 173.444C128.5 170.004 125.554 166.729 122.525 163.535C116.469 157.229 109.921 151.579 103.373 145.765C100.017 142.817 96.5798 140.033 92.3237 138.477C88.3132 137.085 84.0571 135.201 79.8011 135.119C78.246 135.201 78.246 137.658 79.8011 137.658Z" fill="black"/>
<path d="M139.468 185.89C147.571 184.089 155.182 188.429 161.894 192.36C163.285 193.179 164.513 191.049 163.122 190.231C155.755 185.89 147.653 181.468 138.813 183.516C137.258 183.843 137.913 186.218 139.468 185.89Z" fill="black"/>
<path d="M178.261 130.533C169.095 144.045 160.828 158.294 153.216 172.788C151.252 176.555 149.288 180.322 147.487 184.089C146.832 185.481 148.96 186.791 149.615 185.317C156.654 170.577 164.839 156.246 173.514 142.407C175.724 138.804 178.016 135.282 180.389 131.761C181.29 130.451 179.162 129.223 178.261 130.533Z" fill="black"/>
<path d="M10.2299 127.42C11.6213 126.192 13.2582 125.291 14.8952 124.472C18.1691 122.916 21.934 122.179 25.4535 122.834C27.0086 123.08 27.6633 120.787 26.1082 120.459C19.3149 119.231 11.785 122.097 7.03785 127.011C5.23722 129.14 3.84582 131.597 3.02734 134.381V134.463C4.3369 133.234 5.64645 132.006 6.95601 130.696C8.02002 129.549 9.00218 128.403 10.2299 127.42Z" fill="#FFA1A1"/>
<path d="M125.226 83.1998L113.44 86.6392C112.294 86.9667 111.067 86.4754 110.494 85.4108C104.846 74.3556 87.7401 10.0718 129.81 1.47331C186.611 -10.237 193.978 56.0122 188.821 75.3383C188.576 76.321 187.594 76.9761 186.611 76.8123C184.238 76.5667 179.736 76.0753 176.544 76.321C175.317 76.4029 174.334 75.4202 174.334 74.2737L174.498 68.3776C174.498 68.2138 174.253 68.2138 174.253 68.3776L172.616 75.6659C172.37 76.5667 171.552 77.2218 170.651 77.2218C165.004 77.1399 145.933 77.3856 125.226 83.1998Z" fill="black"/>
<path d="M103.536 43.8927C103.536 43.8927 103.127 23.4201 117.205 9.90822C131.283 -3.60367 154.936 5.48614 158.701 7.12395C174.334 14.1665 185.547 42.7462 175.398 61.4991C165.331 80.2519 151.99 81.0708 151.99 81.0708L103.536 43.8927Z" fill="black"/>
<path d="M157.801 74.9297C158.456 78.451 160.256 83.6919 159.601 87.2132C158.947 90.7345 156.328 93.0274 153.054 94.829C147.324 98.0227 139.958 98.8416 135.293 94.1739C131.2 90.0794 130.055 83.9376 129.154 78.2053" fill="#FFA1A1"/>
<path d="M135.702 86.1485C153.286 86.1485 167.54 69.9066 167.54 49.8711C167.54 29.8357 153.286 13.5938 135.702 13.5938C118.118 13.5938 103.863 29.8357 103.863 49.8711C103.863 69.9066 118.118 86.1485 135.702 86.1485Z" fill="#FFC5C4"/>
<path d="M118.433 50.3633C112.294 51.2641 110.412 54.8672 110.821 57.5696C111.148 60.1082 115.077 61.4185 119.169 61.5822C118.678 60.272 118.187 58.3885 118.024 56.0137C117.86 53.3113 118.105 51.5097 118.433 50.3633Z" fill="white"/>
<path d="M130.138 53.5562C128.583 52.0822 125.555 50.0349 120.48 50.1987C119.743 50.1987 119.007 50.2806 118.352 50.3625C118.025 51.5089 117.779 53.3105 117.943 56.0129C118.106 58.3877 118.598 60.1893 119.089 61.5814C119.825 61.5814 120.562 61.5814 121.298 61.5814C124.736 61.4177 128.419 58.7153 130.22 56.7499C131.038 55.931 130.956 54.2932 130.138 53.5562Z" fill="black"/>
<path d="M146.915 48.7246C140.777 49.6254 138.894 53.2286 139.303 55.931C139.631 58.4695 143.56 59.7798 147.652 59.9436C147.161 58.6333 146.67 56.7499 146.506 54.375C146.424 51.6727 146.67 49.8711 146.915 48.7246Z" fill="white"/>
<path d="M158.62 51.9175C157.065 50.4435 154.037 48.3962 148.962 48.56C148.226 48.56 147.489 48.6419 146.834 48.7238C146.507 49.8703 146.261 51.6719 146.425 54.3742C146.589 56.7491 147.08 58.5506 147.571 59.9428C148.308 59.9428 149.044 59.9428 149.781 59.9428C153.218 59.779 156.902 57.0766 158.702 55.1112C159.521 54.2923 159.521 52.6545 158.62 51.9175Z" fill="black"/>
<path d="M136.849 62.1542L134.639 62.318C133.821 62.3999 133.084 61.7447 133.084 60.9258C133.084 60.1069 133.657 59.3699 134.475 59.3699L136.685 59.2061C137.504 59.1243 138.24 59.7794 138.24 60.5983C138.24 61.4172 137.667 62.1542 136.849 62.1542Z" fill="black"/>
<path d="M133.165 74.2753C134.72 72.1462 136.275 69.8532 138.649 68.543C140.531 67.4784 143.15 67.069 144.951 68.6249C146.179 69.6894 147.897 67.8879 146.67 66.9052C144.214 64.776 140.777 64.776 137.994 66.0863C134.966 67.5603 132.919 70.3446 131.037 72.9651C130.628 73.5383 130.955 74.3572 131.446 74.6847C132.101 75.0942 132.756 74.8485 133.165 74.2753Z" fill="black"/>
<path d="M170.661 62.6642C171.857 59.4901 171.043 56.2443 168.843 55.4144C166.644 54.5845 163.892 56.4849 162.697 59.659C161.502 62.8331 162.316 66.079 164.515 66.9089C166.715 67.7387 169.466 65.8384 170.661 62.6642Z" fill="#FFC5C4"/>
<path d="M169.342 47.0863C169.342 47.0863 163.777 40.9445 137.913 44.1382C112.049 47.332 103.456 52.6548 103.456 52.6548C103.456 52.6548 94.4523 17.1145 131.775 9.82623C169.097 2.538 170.161 40.9445 169.342 47.0863Z" fill="black"/>
<path d="M138.241 16.1309C138.241 16.1309 145.444 19.4884 145.608 43.8098L127.683 47.8224C127.601 47.8224 124 19.2427 138.241 16.1309Z" fill="#FFC5C4"/>
<path d="M101.571 132.825C101.162 137.902 101.489 142.98 102.471 148.057C103.29 147.811 104.026 147.647 104.845 147.402C104.681 146.91 104.517 146.501 104.354 146.009C103.862 144.535 101.489 145.191 101.98 146.665C102.144 147.156 102.307 147.565 102.471 148.057C102.962 149.531 105.172 148.958 104.845 147.402C103.944 142.57 103.699 137.739 104.108 132.825C104.108 131.269 101.653 131.269 101.571 132.825Z" fill="black"/>
<path d="M140.94 188.103C130.136 196.046 121.624 206.856 115.731 218.894C109.92 230.931 106.646 244.116 105.664 257.464C105.336 262.459 105.336 267.536 105.664 272.532C106.482 272.859 107.3 273.187 108.201 273.432C107.382 262.459 108.119 251.322 110.656 240.594C113.603 227.983 118.923 215.864 126.698 205.545C131.036 199.731 136.274 194.49 142.167 190.15C143.395 189.331 142.167 187.202 140.94 188.103Z" fill="black"/>
<path d="M216.241 196.536C210.184 192.36 203.391 189.248 196.434 186.791C189.395 184.335 182.111 182.287 174.826 180.813C166.478 179.094 157.638 178.357 149.453 181.387C147.98 181.96 148.635 184.335 150.108 183.761C157.065 181.223 164.595 181.469 171.798 182.779C178.918 184.007 186.039 185.972 192.914 188.265C205.764 192.524 218.369 198.911 226.881 209.803C230.891 214.962 233.756 220.94 234.902 227.409C235.557 226.426 236.13 225.444 236.784 224.461C233.92 212.914 225.899 203.169 216.241 196.536Z" fill="black"/>
<path d="M246.769 146.502C241.858 141.834 235.72 138.64 229.172 136.921C222.542 135.119 215.667 134.628 208.792 134.71C201.098 134.792 193.323 135.447 185.629 136.347C177.363 137.248 169.178 138.559 161.075 140.114C157.801 140.77 154.609 141.507 151.335 142.08C143.723 143.308 136.03 144.291 128.254 144.864C123.425 145.274 118.514 145.437 113.685 145.355C109.839 145.274 105.828 145.028 102.063 143.881C101.327 143.636 100.754 143.472 100.181 143.144C98.7893 142.489 97.4798 144.537 98.953 145.274C102.227 146.829 105.992 147.321 109.593 147.648C114.177 147.976 118.842 147.894 123.507 147.648C132.101 147.157 140.777 146.174 149.289 144.864C151.008 144.618 152.645 144.373 154.364 144.045C161.893 142.571 169.342 141.015 176.953 139.869C185.138 138.722 193.405 137.822 201.589 137.412C208.383 137.003 215.258 136.921 222.051 137.903C228.681 138.886 235.228 140.933 240.794 144.7C246.687 148.713 250.943 154.609 254.626 160.587C255.445 161.815 256.181 163.126 256.918 164.436C257 162.962 257.082 161.406 257.082 159.932C254.053 155.1 250.861 150.433 246.769 146.502Z" fill="black"/>
<path d="M118.433 164.272C119.988 164.517 120.642 162.143 119.087 161.897C99.7714 158.621 82.5835 173.525 71.6978 187.856C60.8121 202.269 54.1825 219.711 52.3 237.563C52.1364 238.874 52.0545 240.184 51.9727 241.576C52.7911 242.231 53.5278 242.968 54.3462 243.623C54.7555 234.206 56.5561 224.789 59.5844 215.863C62.4491 207.592 66.3778 199.812 71.2886 192.606C76.2813 185.399 82.2561 178.602 89.295 173.362C97.6434 167.138 107.874 162.552 118.433 164.272Z" fill="black"/>
</g>
<defs>
<clipPath id="clip0">
<rect width="257" height="279" fill="white"/>
</clipPath>
</defs>
</svg>
