<svg width="313" height="482" viewBox="0 0 313 482" fill="none" xmlns="http://www.w3.org/2000/svg">
<g opacity="0.1">
<path d="M296.116 235.094C296.349 236.957 296.582 238.819 296.815 240.682C296.971 242.7 297.825 245.029 295.34 246.271C293.242 247.28 291.689 245.805 290.368 244.486C287.961 242.079 286.019 242.468 284.387 245.184C282.213 248.755 279.649 248.755 276.775 246.116C274.445 243.942 272.581 243.942 270.717 246.814C269.707 248.289 268.775 250.385 266.367 249.686C263.804 248.91 263.881 246.581 263.648 244.486C262.872 238.043 262.25 231.601 263.027 225.003C263.648 219.415 266.833 216.388 272.037 215.068C288.194 211.187 293.553 215.534 296.116 235.094Z" fill="white"/>
<path d="M296.196 464.999C296.818 466.241 297.439 467.483 297.983 468.724C298.604 470.044 299.692 471.441 298.293 472.916C297.128 474.08 295.652 473.459 294.487 472.838C292.235 471.751 290.992 472.45 290.526 474.778C289.904 477.728 288.118 478.349 285.477 477.184C283.38 476.253 282.059 476.719 281.438 479.047C281.127 480.289 280.972 481.919 279.108 481.997C277.166 482.074 276.7 480.444 276.001 479.047C273.981 474.778 272.039 470.51 271.029 465.853C270.175 461.894 271.651 459.1 274.913 456.927C285.166 450.407 289.827 452.192 296.196 464.999Z" fill="white"/>
<path d="M27.0515 227.721C26.4301 228.807 25.8864 229.894 25.265 230.903C24.6436 232.067 24.1776 233.542 22.391 233.309C20.9152 233.076 20.6045 231.679 20.4492 230.515C20.0608 228.342 18.8957 227.798 17.0315 228.652C14.5459 229.739 13.1477 228.73 12.6817 226.246C12.2933 224.228 11.2835 223.529 9.1863 224.305C8.09885 224.694 6.85605 225.47 5.84628 224.228C4.75883 222.908 5.69093 221.667 6.31232 220.502C8.33187 216.777 10.4291 213.129 13.3031 210.024C15.711 207.308 18.5073 206.92 21.7696 208.161C31.7897 212.12 32.9548 216.389 27.0515 227.721Z" fill="white"/>
<path d="M43.2088 27.7754C43.5972 29.1725 43.9856 30.5696 44.2963 31.9667C44.6846 33.4414 45.5391 35.1489 43.7525 36.3132C42.2767 37.3222 40.9562 36.3132 39.7911 35.537C37.6939 33.9847 36.2957 34.4504 35.3636 36.7012C34.1208 39.6506 32.179 39.8835 29.6934 38.1759C27.6738 36.7789 26.2757 37.0117 25.1882 39.3402C24.6445 40.582 24.1008 42.212 22.2366 41.9791C20.217 41.6686 20.0617 39.8835 19.6733 38.3312C18.4305 33.519 17.2654 28.7844 17.1877 23.7394C17.11 19.4705 19.1296 16.9092 22.9357 15.3569C34.7422 10.5447 39.1697 13.3389 43.2088 27.7754Z" fill="white"/>
<path d="M174.634 12.2511C174.401 13.1049 174.246 13.881 174.013 14.7348C173.78 15.5886 173.702 16.7528 172.537 16.8304C171.527 16.9081 171.061 16.0543 170.75 15.2781C170.129 13.881 169.275 13.7258 168.11 14.6572C166.634 15.8214 165.546 15.4334 164.769 13.8034C164.148 12.484 163.371 12.2511 162.129 13.1049C161.507 13.5706 160.73 14.2691 159.876 13.6482C158.944 12.9497 159.332 11.9406 159.565 11.0093C160.264 8.21509 161.041 5.34331 162.362 2.78199C163.527 0.531132 165.313 -0.245025 167.721 0.0654376C175.1 0.919211 176.654 3.63576 174.634 12.2511Z" fill="white"/>
<path d="M307.226 45.3944C308.236 47.102 309.246 48.732 310.256 50.4396C311.266 52.3024 313.052 54.1653 311.188 56.3386C309.634 58.2014 307.537 57.4252 305.673 56.7267C302.333 55.4848 300.702 56.5714 300.236 59.909C299.692 64.2556 297.206 65.3423 293.4 63.9452C290.293 62.8585 288.507 63.6347 287.885 67.1275C287.575 68.9128 287.575 71.3189 285.011 71.6294C282.293 72.0175 281.361 69.6889 280.273 67.8261C276.855 62.0047 273.515 56.1833 271.496 49.6634C269.787 44.0749 271.496 39.9611 275.923 36.4683C289.672 25.9898 296.585 27.8526 307.226 45.3944Z" fill="white"/>
<path d="M22.3911 445.05C22.0804 446.215 21.8474 447.456 21.459 448.621C21.0706 449.862 21.0706 451.492 19.2841 451.648C17.8083 451.803 17.1869 450.483 16.6432 449.397C15.7111 447.379 14.4683 447.146 12.8371 448.465C10.6622 450.173 9.10869 449.552 8.02124 447.224C7.08914 445.361 5.92401 444.973 4.13749 446.215C3.20539 446.913 2.11794 447.922 0.875141 446.991C-0.523008 445.904 0.0983915 444.507 0.409091 443.187C1.41887 439.074 2.58399 435.038 4.52586 431.235C6.23471 427.975 8.79799 426.888 12.2934 427.276C23.0902 428.596 25.3427 432.477 22.3911 445.05Z" fill="white"/>
</g>
</svg>
