<svg width="28" height="28" viewBox="0 0 28 28" fill="none" xmlns="http://www.w3.org/2000/svg">
<path d="M27.4401 10.1C27.4699 10.0011 27.4664 9.8952 27.43 9.79857C27.3936 9.70193 27.3264 9.61996 27.2388 9.56534C27.1512 9.51071 27.048 9.48646 26.9452 9.49634C26.8424 9.50622 26.7457 9.54968 26.6701 9.61999L22.6701 13.28C22.6225 13.324 22.5846 13.3774 22.5586 13.4367C22.5327 13.4961 22.5193 13.5602 22.5193 13.625C22.5193 13.6898 22.5327 13.7539 22.5586 13.8133C22.5846 13.8726 22.6225 13.926 22.6701 13.97L26.6701 17.63C26.7457 17.7003 26.8424 17.7438 26.9452 17.7536C27.048 17.7635 27.1512 17.7393 27.2388 17.6846C27.3264 17.63 27.3936 17.5481 27.43 17.4514C27.4664 17.3548 27.4699 17.2488 27.4401 17.15L26.3901 13.62L27.4401 10.1Z" fill="#B6B8BC"/>
<path d="M10.98 18L11.73 17.26C11.8452 17.1439 11.9823 17.0518 12.1334 16.9889C12.2844 16.926 12.4464 16.8936 12.61 16.8936C12.7736 16.8936 12.9356 16.926 13.0866 16.9889C13.2376 17.0518 13.3747 17.1439 13.49 17.26L14.36 18.12" stroke="white" stroke-width="1.5" stroke-linecap="round" stroke-linejoin="round"/>
<path d="M7 11.84L9.83 14.67" stroke="white" stroke-width="1.5" stroke-linecap="round" stroke-linejoin="round"/>
<path d="M9.83 11.84L7 14.67" stroke="white" stroke-width="1.5" stroke-linecap="round" stroke-linejoin="round"/>
<path d="M16.1699 11.84L19.0099 14.67" stroke="white" stroke-width="1.5" stroke-linecap="round" stroke-linejoin="round"/>
<path d="M19.0099 11.84L16.1699 14.67" stroke="white" stroke-width="1.5" stroke-linecap="round" stroke-linejoin="round"/>
</svg>
