<svg width="28" height="28" viewBox="0 0 28 28" fill="none" xmlns="http://www.w3.org/2000/svg">
<path d="M8.89919 9.49001L5.41919 10.48" stroke="black" stroke-linecap="round" stroke-linejoin="round"/>
<path d="M16.8391 9.49001L20.3191 10.48" stroke="black" stroke-linecap="round" stroke-linejoin="round"/>
<path d="M11.0891 18.22L11.8391 17.47C12.0715 17.2386 12.3861 17.1086 12.7141 17.1086C13.0421 17.1086 13.3567 17.2386 13.5891 17.47L14.4591 18.34L11.0891 18.22Z" stroke="black" stroke-width="1.5" stroke-linecap="round" stroke-linejoin="round"/>
<path d="M7.70923 11.7C5.60923 11.9 4.90923 13.1 5.00923 14C5.10923 14.9 6.30923 15.4 7.70923 15.5C7.53681 14.8802 7.43615 14.2427 7.40923 13.6C7.41829 12.9556 7.51931 12.3158 7.70923 11.7Z" fill="white"/>
<path d="M11.5092 13C11.0925 12.5768 10.5937 12.2432 10.0434 12.0196C9.49313 11.7961 8.90298 11.6873 8.30918 11.7H7.60918C7.4644 12.3227 7.39723 12.9608 7.40918 13.6C7.38526 14.2468 7.48715 14.8921 7.70918 15.5H8.40918C9.56904 15.3895 10.6594 14.8971 11.5092 14.1C11.6545 13.9539 11.7361 13.7561 11.7361 13.55C11.7361 13.3439 11.6545 13.1462 11.5092 13Z" fill="black"/>
<path d="M17.3091 11.7C15.2091 11.9 14.5091 13.1 14.6091 14C14.7091 14.9 15.9091 15.4 17.3091 15.5C17.1367 14.8802 17.036 14.2427 17.0091 13.6C17.0181 12.9556 17.1192 12.3158 17.3091 11.7Z" fill="white"/>
<path d="M21.1092 13C20.6879 12.5718 20.1826 12.2353 19.625 12.0116C19.0675 11.7879 18.4697 11.6818 17.8692 11.7H17.1692C17.0245 12.3227 16.9573 12.9608 16.9692 13.6C16.9453 14.2468 17.0472 14.8921 17.2692 15.5H17.9692C19.1291 15.3895 20.2195 14.8971 21.0692 14.1C21.22 13.9592 21.3089 13.7644 21.3164 13.5583C21.3239 13.3521 21.2494 13.1514 21.1092 13Z" fill="black"/>
</svg>
