<svg width="28" height="28" viewBox="0 0 28 28" fill="none" xmlns="http://www.w3.org/2000/svg">
<path d="M17.0701 8.71C17.4527 9.44245 18.0608 10.0324 18.8046 10.3925C19.5483 10.7527 20.3882 10.864 21.2001 10.71C21.264 10.6927 21.3239 10.6628 21.3762 10.6222C21.4285 10.5815 21.4722 10.5309 21.5048 10.4732C21.5373 10.4155 21.5581 10.3519 21.5659 10.2861C21.5737 10.2204 21.5683 10.1537 21.5501 10.09C21.5106 9.96375 21.4246 9.85728 21.3094 9.79225C21.1942 9.72723 21.0586 9.70854 20.9301 9.74H20.8101H20.1101C19.9443 9.71064 19.7807 9.67056 19.6201 9.62C19.5412 9.59609 19.4643 9.56599 19.3901 9.53H19.3201L19.2101 9.48C19.0628 9.40183 18.9223 9.31151 18.7901 9.21C18.7901 9.21 18.6901 9.14 18.7901 9.21L18.6901 9.13L18.4701 9C18.4083 8.94147 18.3514 8.87792 18.3001 8.81C18.3001 8.81 18.2301 8.73 18.3001 8.81L18.2301 8.71C18.1301 8.56461 18.0431 8.41068 17.9701 8.25C17.9425 8.18348 17.9012 8.12356 17.8488 8.07416C17.7965 8.02476 17.7342 7.98701 17.6662 7.9634C17.5982 7.93978 17.5259 7.93083 17.4542 7.93714C17.3825 7.94345 17.3129 7.96487 17.2501 8C17.1378 8.07041 17.0566 8.18104 17.0232 8.30929C16.9897 8.43753 17.0065 8.57371 17.0701 8.69V8.71Z" fill="black"/>
<path d="M7.70002 8.20001C7.62992 8.35186 7.54974 8.49886 7.46002 8.64001L7.37002 8.76001C7.32218 8.82777 7.26865 8.89133 7.21002 8.95001L7.03002 9.12001L6.91002 9.22001C6.76948 9.32263 6.62251 9.41615 6.47002 9.50001L6.36002 9.55001H6.28002H6.20002H6.08002C5.92386 9.60404 5.76324 9.6442 5.60002 9.67001C5.60002 9.67001 5.47002 9.67001 5.60002 9.67001H4.82002H4.68002C4.55155 9.63855 4.41591 9.65724 4.30073 9.72226C4.18554 9.78728 4.09947 9.89376 4.06002 10.02C4.04182 10.0837 4.03645 10.1504 4.04424 10.2162C4.05202 10.2819 4.0728 10.3455 4.10536 10.4032C4.13792 10.4609 4.18163 10.5115 4.23393 10.5522C4.28623 10.5928 4.34608 10.6227 4.41002 10.64C5.22191 10.794 6.0618 10.6827 6.80555 10.3225C7.54929 9.96237 8.15741 9.37246 8.54002 8.64001C8.59069 8.53201 8.60345 8.41008 8.57622 8.29394C8.549 8.1778 8.4834 8.07424 8.39002 8.00001C8.27373 7.93643 8.13755 7.91965 8.00931 7.9531C7.88106 7.98656 7.77043 8.06772 7.70002 8.18001V8.20001Z" fill="black"/>
<path d="M12.8201 19C13.3724 19 13.8201 18.3284 13.8201 17.5C13.8201 16.6716 13.3724 16 12.8201 16C12.2678 16 11.8201 16.6716 11.8201 17.5C11.8201 18.3284 12.2678 19 12.8201 19Z" fill="black" stroke="black" stroke-width="1.5" stroke-linecap="round" stroke-linejoin="round"/>
<g opacity="0.5">
<path opacity="0.5" d="M20.46 14.48L20.3 14.6H20.37L20.46 14.48Z" fill="white"/>
<path opacity="0.5" d="M19.8201 14.94C19.6621 15.0365 19.4985 15.1233 19.3301 15.2L19.6401 15.06L19.8201 14.94Z" fill="white"/>
<path opacity="0.5" d="M6.62 16.32H6.71C6.82869 16.3212 6.94379 16.2793 7.03391 16.2021C7.12403 16.1248 7.18305 16.0175 7.2 15.9C7.21296 15.8239 7.20697 15.7457 7.18255 15.6725C7.15813 15.5992 7.11604 15.5331 7.06 15.48C5.91 15.3 4.92 14.84 4.82 14.14C4.72573 14.0766 4.61234 14.0479 4.49924 14.0588C4.38614 14.0697 4.28036 14.1197 4.2 14.2C4.15314 14.2465 4.11594 14.3018 4.09055 14.3627C4.06517 14.4236 4.0521 14.489 4.0521 14.555C4.0521 14.621 4.06517 14.6864 4.09055 14.7473C4.11594 14.8082 4.15314 14.8635 4.2 14.91L4.48 15.16L4 26.38C4.58194 25.9166 5.09684 25.3748 5.53 24.77C5.8956 24.3311 6.33153 23.956 6.82 23.66L6.42 16.25C6.48 16.27 6.55 16.31 6.62 16.32Z" fill="white"/>
<path opacity="0.5" d="M6.62 16.32H6.71C6.82869 16.3212 6.94379 16.2793 7.03391 16.2021C7.12403 16.1248 7.18305 16.0175 7.2 15.9C7.21296 15.8239 7.20697 15.7457 7.18255 15.6725C7.15813 15.5992 7.11604 15.5331 7.06 15.48C5.91 15.3 4.92 14.84 4.82 14.14C4.72573 14.0766 4.61234 14.0479 4.49924 14.0588C4.38614 14.0697 4.28036 14.1197 4.2 14.2C4.15314 14.2465 4.11594 14.3018 4.09055 14.3627C4.06517 14.4236 4.0521 14.489 4.0521 14.555C4.0521 14.621 4.06517 14.6864 4.09055 14.7473C4.11594 14.8082 4.15314 14.8635 4.2 14.91L4.48 15.16L4 26.38C4.58194 25.9166 5.09684 25.3748 5.53 24.77C5.8956 24.3311 6.33153 23.956 6.82 23.66L6.42 16.25C6.48 16.27 6.55 16.31 6.62 16.32Z" fill="white"/>
<path opacity="0.5" d="M21.4899 14.91C21.5367 14.8635 21.5739 14.8082 21.5993 14.7473C21.6247 14.6863 21.6378 14.621 21.6378 14.555C21.6378 14.489 21.6247 14.4236 21.5993 14.3627C21.5739 14.3018 21.5367 14.2465 21.4899 14.2C21.3996 14.1178 21.282 14.0722 21.1599 14.0722C21.0378 14.0722 20.9201 14.1178 20.8299 14.2C20.7129 14.3107 20.5893 14.4142 20.4599 14.51L20.3699 14.59H20.2999C20.1335 14.7136 19.9598 14.8271 19.7799 14.93L19.5999 15.05L19.2899 15.19C19.0707 15.2924 18.8432 15.376 18.6099 15.44C18.5325 15.5061 18.4772 15.5943 18.4513 15.6928C18.4254 15.7912 18.4301 15.8952 18.4649 15.9909C18.4997 16.0866 18.5629 16.1693 18.6459 16.2281C18.729 16.2869 18.8281 16.319 18.9299 16.32H19.0199C19.0899 16.32 19.1599 16.27 19.2399 16.25L18.8199 23.43C19.5222 23.7149 20.1291 24.1935 20.5699 24.81C20.8767 25.2062 21.2108 25.5804 21.5699 25.93L21.1599 15.16L21.4899 14.91Z" fill="white"/>
<path opacity="0.5" d="M21.4899 14.91C21.5367 14.8635 21.5739 14.8082 21.5993 14.7473C21.6247 14.6863 21.6378 14.621 21.6378 14.555C21.6378 14.489 21.6247 14.4236 21.5993 14.3627C21.5739 14.3018 21.5367 14.2465 21.4899 14.2C21.3996 14.1178 21.282 14.0722 21.1599 14.0722C21.0378 14.0722 20.9201 14.1178 20.8299 14.2C20.7129 14.3107 20.5893 14.4142 20.4599 14.51L20.3699 14.59H20.2999C20.1335 14.7136 19.9598 14.8271 19.7799 14.93L19.5999 15.05L19.2899 15.19C19.0707 15.2924 18.8432 15.376 18.6099 15.44C18.5325 15.5061 18.4772 15.5943 18.4513 15.6928C18.4254 15.7912 18.4301 15.8952 18.4649 15.9909C18.4997 16.0866 18.5629 16.1693 18.6459 16.2281C18.729 16.2869 18.8281 16.319 18.9299 16.32H19.0199C19.0899 16.32 19.1599 16.27 19.2399 16.25L18.8199 23.43C19.5222 23.7149 20.1291 24.1935 20.5699 24.81C20.8767 25.2062 21.2108 25.5804 21.5699 25.93L21.1599 15.16L21.4899 14.91Z" fill="white"/>
</g>
<path d="M7.66016 11.7C5.56016 11.9 4.86016 13.1 4.96016 14C5.06016 14.9 6.26016 15.4 7.66016 15.5C7.48774 14.8802 7.38708 14.2427 7.36016 13.6C7.36922 12.9556 7.47024 12.3158 7.66016 11.7Z" fill="white"/>
<path d="M11.4601 13C11.0434 12.5768 10.5446 12.2432 9.99433 12.0196C9.44406 11.7961 8.85391 11.6873 8.2601 11.7H7.5601C7.41533 12.3227 7.34815 12.9608 7.3601 13.6C7.33619 14.2468 7.43807 14.8921 7.6601 15.5H8.3601C9.51997 15.3895 10.6103 14.8971 11.4601 14.1C11.6054 13.9539 11.687 13.7561 11.687 13.55C11.687 13.3439 11.6054 13.1462 11.4601 13Z" fill="black"/>
<path d="M17.26 11.7C15.16 11.9 14.46 13.1 14.56 14C14.66 14.9 15.86 15.4 17.26 15.5C17.0876 14.8802 16.9869 14.2427 16.96 13.6C16.9691 12.9556 17.0701 12.3158 17.26 11.7Z" fill="white"/>
<path d="M21.0602 13C20.6388 12.5718 20.1335 12.2353 19.576 12.0116C19.0184 11.7879 18.4206 11.6818 17.8202 11.7H17.1202C16.9754 12.3227 16.9082 12.9608 16.9202 13.6C16.8962 14.2468 16.9981 14.8921 17.2202 15.5H17.9202C19.08 15.3895 20.1704 14.8971 21.0202 14.1C21.1709 13.9592 21.2598 13.7644 21.2673 13.5583C21.2748 13.3521 21.2003 13.1514 21.0602 13Z" fill="black"/>
</svg>
