<svg width="28" height="28" viewBox="0 0 28 28" fill="none" xmlns="http://www.w3.org/2000/svg">
<path d="M11.9291 16.07H13.2891C13.3726 16.0689 13.4548 16.0902 13.5274 16.1314C13.6 16.1727 13.6602 16.2326 13.702 16.3049C13.7437 16.3772 13.7655 16.4594 13.765 16.5429C13.7645 16.6264 13.7417 16.7082 13.6991 16.78L13.0191 18C12.9065 18.1841 12.7485 18.3362 12.5603 18.4418C12.3721 18.5473 12.1599 18.6028 11.9441 18.6028C11.7283 18.6028 11.5161 18.5473 11.3278 18.4418C11.1396 18.3362 10.9816 18.1841 10.8691 18L10.1891 16.82C10.1492 16.747 10.129 16.6649 10.1304 16.5817C10.1319 16.4986 10.1549 16.4172 10.1972 16.3456C10.2396 16.274 10.2998 16.2147 10.372 16.1734C10.4442 16.1321 10.5259 16.1102 10.6091 16.11L11.9291 16.07Z" fill="black"/>
<path d="M6.70923 11.7C4.60923 11.9 3.90923 13.1 4.00923 14C4.10923 14.9 5.30923 15.4 6.70923 15.5C6.53681 14.8802 6.43615 14.2427 6.40923 13.6C6.41829 12.9556 6.51931 12.3158 6.70923 11.7Z" fill="white"/>
<path d="M10.5092 13C10.0925 12.5768 9.59367 12.2432 9.0434 12.0196C8.49313 11.7961 7.90298 11.6873 7.30918 11.7H6.60918C6.4644 12.3227 6.39723 12.9608 6.40918 13.6C6.38526 14.2468 6.48715 14.8921 6.70918 15.5H7.40918C8.56904 15.3895 9.65942 14.8971 10.5092 14.1C10.6545 13.9539 10.7361 13.7561 10.7361 13.55C10.7361 13.3439 10.6545 13.1462 10.5092 13Z" fill="black"/>
<path d="M16.3091 11.7C14.2091 11.9 13.5091 13.1 13.6091 14C13.7091 14.9 14.9091 15.4 16.3091 15.5C16.1367 14.8802 16.036 14.2427 16.0091 13.6C16.0181 12.9556 16.1192 12.3158 16.3091 11.7Z" fill="white"/>
<path d="M20.1092 13C19.6879 12.5718 19.1826 12.2353 18.625 12.0116C18.0675 11.7879 17.4697 11.6818 16.8692 11.7H16.1692C16.0245 12.3227 15.9573 12.9608 15.9692 13.6C15.9453 14.2468 16.0472 14.8921 16.2692 15.5H16.9692C18.1291 15.3895 19.2195 14.8971 20.0692 14.1C20.22 13.9592 20.3089 13.7644 20.3164 13.5583C20.3239 13.3521 20.2494 13.1514 20.1092 13Z" fill="black"/>
</svg>
