<svg width="66" height="67" viewBox="0 0 66 67" fill="none" xmlns="http://www.w3.org/2000/svg">
<path d="M65.9668 45.0638C65.9668 48.7405 66.0415 52.4419 65.9668 56.1186C65.8672 60.0914 66.9129 64.7798 61.8087 66.5811C57.4763 68.0863 54.7375 64.8045 52.4468 62.0161C48.2389 56.8588 44.4294 57.0562 40.5203 62.0408C35.4161 68.5058 30.3616 67.8889 25.3819 62.0161C21.3234 57.2536 17.6135 56.8588 13.306 61.9174C11.0651 64.533 8.72464 68.4071 4.16817 66.4824C-0.662183 64.4343 0.0349809 59.8199 0.0349809 55.8224C0.0598796 43.1144 0.308867 30.4557 3.32161 17.9697C5.88618 7.33436 12.7333 2.20178 23.2904 0.869286C56.0571 -3.22691 65.4439 6.44603 65.9668 45.0638Z" fill="#89B1FF"/>
<path d="M18.2235 28.4434C12.8459 28.8889 11.0415 31.9299 11.2368 34.2517C11.4261 36.4327 14.7331 37.7929 18.3241 38.1525C17.9396 36.9721 17.6024 35.3539 17.6024 33.3136C17.6024 30.9918 17.91 29.4283 18.2235 28.4434Z" fill="white"/>
<path d="M28.2523 31.7687C26.9922 30.4162 24.4424 28.4932 20.0527 28.3837C19.3961 28.3681 18.7985 28.3915 18.2247 28.4385C17.9111 29.4234 17.6035 30.9869 17.6035 33.3087C17.6035 35.3412 17.9407 36.9672 18.3253 38.1476C18.9583 38.2102 19.6031 38.2493 20.242 38.2493C23.2592 38.2493 26.5721 36.1229 28.2109 34.5516C28.9149 33.8793 28.9326 32.4957 28.2523 31.7687Z" fill="black"/>
<path d="M43.122 28.4434C37.7444 28.8889 35.94 31.9299 36.1352 34.2517C36.3245 36.4327 39.6316 37.7929 43.2226 38.1525C42.838 36.9721 42.5008 35.3539 42.5008 33.3136C42.5008 30.9918 42.8084 29.4283 43.122 28.4434Z" fill="white"/>
<path d="M53.1507 31.7687C51.8906 30.4162 49.3408 28.4932 44.9512 28.3837C44.2945 28.3681 43.697 28.3915 43.1231 28.4385C42.8096 29.4234 42.502 30.9869 42.502 33.3087C42.502 35.3412 42.8392 36.9672 43.2237 38.1476C43.8567 38.2102 44.5016 38.2493 45.1405 38.2493C48.1576 38.2493 51.4706 36.1229 53.1093 34.5516C53.8133 33.8793 53.8311 32.4957 53.1507 31.7687Z" fill="black"/>
</svg>
