<svg width="24" height="24" viewBox="0 0 24 24" fill="none" xmlns="http://www.w3.org/2000/svg">
<path fill-rule="evenodd" clip-rule="evenodd" d="M12 15C13.6569 15 15 13.6569 15 12C15 10.3431 13.6569 9 12 9C10.3431 9 9 10.3431 9 12C9 13.6569 10.3431 15 12 15Z" stroke="#F2F2F4" stroke-width="2" stroke-linecap="round" stroke-linejoin="round"/>
<path fill-rule="evenodd" clip-rule="evenodd" d="M18.7273 14.7273C18.4797 15.2883 18.5985 15.9435 19.0273 16.3818L19.0818 16.4364C19.4232 16.7774 19.6151 17.2402 19.6151 17.7227C19.6151 18.2053 19.4232 18.6681 19.0818 19.0091C18.7408 19.3505 18.278 19.5423 17.7955 19.5423C17.3129 19.5423 16.8501 19.3505 16.5091 19.0091L16.4545 18.9545C16.0162 18.5258 15.361 18.407 14.8 18.6545C14.2505 18.8901 13.8933 19.4294 13.8909 20.0273V20.1818C13.8909 21.186 13.0769 22 12.0727 22C11.0686 22 10.2545 21.186 10.2545 20.1818V20.1C10.2401 19.4842 9.85079 18.9399 9.27273 18.7273C8.71174 18.4797 8.05653 18.5985 7.61818 19.0273L7.56364 19.0818C7.2226 19.4232 6.75984 19.6151 6.27727 19.6151C5.79471 19.6151 5.33194 19.4232 4.99091 19.0818C4.6495 18.7408 4.45766 18.278 4.45766 17.7955C4.45766 17.3129 4.6495 16.8501 4.99091 16.5091L5.04545 16.4545C5.47424 16.0162 5.59304 15.361 5.34545 14.8C5.10994 14.2505 4.57058 13.8933 3.97273 13.8909H3.81818C2.81403 13.8909 2 13.0769 2 12.0727C2 11.0686 2.81403 10.2545 3.81818 10.2545H3.9C4.51575 10.2401 5.06012 9.85079 5.27273 9.27273C5.52031 8.71174 5.40151 8.05653 4.97273 7.61818L4.91818 7.56364C4.57677 7.2226 4.38493 6.75984 4.38493 6.27727C4.38493 5.79471 4.57677 5.33194 4.91818 4.99091C5.25922 4.6495 5.72198 4.45766 6.20455 4.45766C6.68711 4.45766 7.14988 4.6495 7.49091 4.99091L7.54545 5.04545C7.98381 5.47424 8.63901 5.59304 9.2 5.34545H9.27273C9.82225 5.10994 10.1794 4.57058 10.1818 3.97273V3.81818C10.1818 2.81403 10.9958 2 12 2C13.0042 2 13.8182 2.81403 13.8182 3.81818V3.9C13.8206 4.49786 14.1778 5.03721 14.7273 5.27273C15.2883 5.52031 15.9435 5.40151 16.3818 4.97273L16.4364 4.91818C16.7774 4.57677 17.2402 4.38493 17.7227 4.38493C18.2053 4.38493 18.6681 4.57677 19.0091 4.91818C19.3505 5.25922 19.5423 5.72198 19.5423 6.20455C19.5423 6.68711 19.3505 7.14988 19.0091 7.49091L18.9545 7.54545C18.5258 7.98381 18.407 8.63901 18.6545 9.2V9.27273C18.8901 9.82225 19.4294 10.1794 20.0273 10.1818H20.1818C21.186 10.1818 22 10.9958 22 12C22 13.0042 21.186 13.8182 20.1818 13.8182H20.1C19.5021 13.8206 18.9628 14.1778 18.7273 14.7273Z" stroke="#F2F2F4" stroke-width="2" stroke-linecap="round" stroke-linejoin="round"/>
</svg>
