<svg width="24" height="24" viewBox="0 0 24 24" fill="none" xmlns="http://www.w3.org/2000/svg">
<path d="M24 18.6596C24 21.6094 21.6088 24 18.6601 24H5.33985C2.3912 24 0 21.6094 0 18.6596V5.34036C0 2.3906 2.3912 0 5.33985 0H18.6601C21.6088 0 24 2.3906 24 5.34036V18.6596Z" fill="#F5DE4B"/>
<path d="M11.8984 5.51074C7.7572 5.51074 4.40039 8.16389 4.40039 11.4386C4.40039 13.5693 5.82183 15.4367 7.95683 16.4815C7.79968 17.0662 7.3891 18.6024 7.30698 18.9308C7.20505 19.3386 7.45564 19.3329 7.62129 19.2239C7.75012 19.1375 9.67558 17.8279 10.5066 17.263C10.9583 17.3296 11.4227 17.365 11.8984 17.365C16.0395 17.365 19.3963 14.7118 19.3963 11.4371C19.3949 8.16389 16.0381 5.51074 11.8984 5.51074Z" fill="#391D1B"/>
</svg>
